<?xml version="1.0" encoding="UTF-8"?>
<svg id="Layer_1" data-name="Layer 1" xmlns="http://www.w3.org/2000/svg" viewBox="0 0 309.45 297.19">
  <defs>
    <style>
      .cls-1 {
        fill: #c69c63;
        stroke-width: 0px;
      }
    </style>
  </defs>
  <path class="cls-1" d="M149.9,194.34c0-1.38,0-2.64,0-3.91.02-2.6,1.74-4.44,4.19-4.47,2.54-.02,4.32,1.82,4.34,4.47,0,1.29,0,2.6,0,3.85h8.55c0-1.42-.02-2.74,0-4.05.03-2.46,1.84-4.26,4.27-4.26,2.41,0,4.23,1.82,4.25,4.28.02,1.35,0,2.69,0,4.06h8.55v-3.89c.02-2.6,1.75-4.44,4.21-4.45,2.53-.02,4.3,1.83,4.31,4.49,0,1.3,0,2.6,0,3.87h8.54c0-1.42,0-2.76,0-4.11.03-2.45,1.86-4.25,4.29-4.25,2.41,0,4.2,1.82,4.23,4.3.02,1.34,0,2.69,0,4.12,2.29,0,4.41,0,6.54,0,1.73,0,2-.27,2-1.98,0-5.7,0-11.41,0-17.11,0-1.71-.27-1.97-2.01-1.97-23.96,0-47.93,0-71.89.03-.66,0-1.48.33-1.94.79-6.54,6.38-13.04,12.82-19.54,19.24-.27.27-.51.56-.87.96h27.96ZM115.79,135.42c1.47,0,2.8,0,4.13,0,2.5.03,4.35,1.82,4.35,4.19,0,2.39-1.82,4.19-4.31,4.22-1.36.02-2.73,0-4.15,0v8.43c1.35,0,2.63,0,3.91,0,2.69.02,4.56,1.77,4.54,4.25-.02,2.41-1.9,4.15-4.51,4.16-1.32,0-2.64,0-3.92,0v27.42l.32.22c.28-.39.52-.82.86-1.16,6.34-6.28,12.69-12.55,19.05-18.78.71-.7,1.03-1.38,1.03-2.4-.03-23.72-.03-47.45-.03-71.19v-1.44h-21.25v8.36c1.33,0,2.57,0,3.81,0,2.73,0,4.62,1.72,4.64,4.17,0,2.52-1.88,4.24-4.69,4.24-1.27,0-2.54,0-3.77,0v8.43c1.39,0,2.72,0,4.04,0,2.58.02,4.44,1.81,4.43,4.25-.02,2.37-1.87,4.14-4.37,4.16-1.36.02-2.72,0-4.11,0v8.43ZM147.33,164.91h69.21c6.14,0,10.18,3.99,10.18,10.05s0,12.11,0,18.16c-.02,5.59-4.19,9.69-9.87,9.69h-99.76c-5.75,0-9.88-4.1-9.88-9.81v-100.81c0-4.37,3.01-7.31,7.46-7.31,7.83,0,15.65,0,23.47,0,4.51,0,7.47,2.95,7.47,7.44v72.59h1.71"/>
</svg>