<?xml version="1.0" encoding="UTF-8"?>
<svg id="Layer_1" data-name="Layer 1" xmlns="http://www.w3.org/2000/svg" viewBox="0 0 1080 1080">
  <defs>
    <style>
      .cls-1 {
        stroke-width: 0px;
      }
    </style>
  </defs>
  <path class="cls-1" d="m624.47,391.48c-95.48,0-190.98-.91-286.44.56-28.64.44-39.12-7.98-37.56-36.4,2.13-38.92,1.3-78.05.24-117.05-.58-21.26,7.9-28.65,29.48-28.59,197.41.49,394.83.49,592.24,0,21.48-.05,30.16,7.16,29.6,28.51-1.05,40.26-1.45,80.61.13,120.84.97,24.81-8.35,32.83-33.52,32.56-98.05-1.06-196.12-.43-294.18-.43Zm-291.01-32.64h584.44v-116.59H333.47v116.59Z"/>
  <path class="cls-1" d="m331.05,440.54v372.01h589.22v-371.93c4.11-2.09,8.21-4.19,12.32-6.28,6.38,8.37,18.25,16.68,18.33,25.11,1.2,119.68,1.39,239.38-.36,359.05-.13,9.02-16.79,25.5-25.86,25.57-198.84,1.48-397.7,1.48-596.54,0-9.11-.07-25.82-16.48-25.95-25.45-1.76-119.67-1.57-239.37-.37-359.05.08-8.48,11.87-16.84,18.21-25.26,3.67,2.08,7.33,4.16,11,6.23Z"/>
  <path class="cls-1" d="m378.52,603.53c0-45.3.88-90.62-.37-135.89-.63-22.73,7.35-31.38,31.17-30.88,56.72,1.2,113.49,1.15,170.21.02,23.37-.47,31.83,7.39,31.58,30.51-.96,90.59-.92,181.2-.02,271.78.23,22.68-7.4,31.39-31.21,30.9-56.72-1.19-113.49-1.15-170.21-.01-23.41.47-32.2-7.43-31.54-30.55,1.3-45.26.38-90.59.38-135.88Zm199.69-134.3h-166.5v267.62h166.5v-267.62Z"/>
  <path class="cls-1" d="m877.52,447.19c-7.34,6.62-14.52,18.78-22.04,18.98-59.17,1.59-118.42,1.59-177.6.09-8.19-.21-16.09-11.34-24.13-17.42,2.05-3.22,4.1-6.45,6.15-9.67h210.65c2.32,2.67,4.65,5.35,6.97,8.02Z"/>
  <path class="cls-1" d="m663.87,513.58h205.83c9.15,19.86,5.84,29.65-18.92,29.35-56.64-.68-113.31.57-169.91-1.03-8.97-.25-17.61-11.28-26.4-17.32,3.13-3.67,6.26-7.34,9.4-11.01Z"/>
  <path class="cls-1" d="m877.24,599.82c-8.65,6.17-17.14,17.44-25.97,17.69-56.59,1.62-113.28,1.61-169.88.04-9.18-.26-18.04-10.97-27.06-16.86,1.96-3.46,3.91-6.92,5.87-10.38h210.67c2.12,3.17,4.24,6.33,6.36,9.5Z"/>
  <path class="cls-1" d="m868.49,692.34h-207.42c-2.28-2.86-4.57-5.71-6.85-8.57,7.41-6.56,14.67-18.61,22.26-18.81,59.17-1.58,118.42-1.58,177.6-.07,8.12.21,15.94,11.44,23.91,17.57-3.16,3.29-6.33,6.59-9.49,9.88Z"/>
  <path class="cls-1" d="m653.75,757.93c8.04-6.08,15.94-17.22,24.13-17.43,59.17-1.5,118.43-1.5,177.6.09,7.52.2,14.7,12.36,22.04,18.98-2.31,2.81-4.63,5.63-6.94,8.44h-207.42c-3.14-3.36-6.28-6.72-9.42-10.08Z"/>
</svg>