<?xml version="1.0" encoding="UTF-8"?>
<svg id="Layer_1" data-name="Layer 1" xmlns="http://www.w3.org/2000/svg" viewBox="0 0 309.45 297.19">
  <defs>
    <style>
      .cls-1 {
        fill: #c69c63;
        stroke-width: 0px;
      }
    </style>
  </defs>
  <path class="cls-1" d="M103.09,200.48c-6.2-2.81-10.18-7.28-11.79-13.75-.21-.84-.43-1.7-.44-2.55-.04-5.45-.02-10.9-.02-16.45h117.36v3.93c-.02,4.27.3,8.59-.16,12.83-.77,7.15-4.69,12.33-11.15,15.53-.27.13-.54.26-.97.48.63,1.28,1.28,2.52,1.88,3.79,1.32,2.76.41,5.67-2.14,6.9-2.5,1.21-5.29.17-6.67-2.5-.97-1.89-1.93-3.8-2.84-5.74-.36-.79-.82-1.1-1.73-1.1-23.29.03-46.58.03-69.87,0-.93,0-1.36.34-1.72,1.12-.9,1.93-1.86,3.84-2.84,5.74-1.39,2.68-4.18,3.69-6.67,2.47-2.54-1.24-3.44-4.15-2.11-6.9.59-1.24,1.21-2.45,1.87-3.77"/>
  <path class="cls-1" d="M117.07,103.88c-5.35-2.83-7.98-9.11-6.13-15.01.35-1.11.25-1.86-.71-2.45-.98-.59-1.93-1.38-3.02-1.68-3.71-1.04-6.62,1.24-6.63,5.1-.02,7.34,0,14.68,0,22.01v36.19h111.99c3.37,0,5.56,2.1,5.42,5.19-.1,2.39-2.12,4.43-4.5,4.57-.31.02-.62.02-.92.02-42.04,0-84.08,0-126.11,0-3.32,0-5.49-2.01-5.43-5.02.05-2.57,2.07-4.67,4.64-4.74,1.66-.05,3.33,0,5.14,0v-1.94c0-18.5.06-36.99-.03-55.49-.03-6.74,2.55-11.86,8.73-14.62s11.97-1.5,16.99,2.93c1.28,1.13,2.24,1.46,3.96,1.02,5.8-1.48,11.66,1.27,14.26,6.32-5.86,5.86-11.68,11.68-17.63,17.62"/>
</svg>