<?xml version="1.0" encoding="UTF-8"?>
<svg id="Layer_1" data-name="Layer 1" xmlns="http://www.w3.org/2000/svg" viewBox="0 0 309.45 297.19">
  <defs>
    <style>
      .cls-1 {
        fill: #c69c63;
        stroke-width: 0px;
      }
    </style>
  </defs>
  <path class="cls-1" d="M89.35,163.1c.17-.59.35-1.17.51-1.76,1.6-6.27,7.05-10.84,13.19-10.85,20.8-.05,41.6-.03,62.41-.03,13.57,0,27.14-.03,40.72.02,6.48.02,11.85,4.54,13.47,11.17.25,1.03.41,2.11.42,3.17.05,3.8.02,7.6.02,11.58h-1.58c-42.59,0-85.17,0-127.76,0-.46,0-.93-.07-1.39-.11v-13.17Z"/>
  <path class="cls-1" d="M89.35,184.34c.59.02,1.19.04,1.79.04h128.83c.05.27.11.44.11.6,0,7.12.02,14.25,0,21.37,0,2.26-1.74,4.03-3.82,4.03s-3.78-1.79-3.82-4.03c-.02-1.03,0-2.06,0-3.09v-1.41h-115.43v4.03c0,2.37-1.12,3.95-3.12,4.42-1.69.4-3.32-.59-4.29-2.57-.05-.11-.16-.19-.24-.28v-23.12Z"/>
  <path class="cls-1" d="M126.35,142.33h-20.56c-.02-.48-.06-.92-.06-1.36,0-6.09-.02-12.19,0-18.28.02-9.03,6.13-15.48,14.72-15.48,22.85-.02,45.71-.02,68.56,0,8.59,0,14.71,6.45,14.72,15.48,0,6.49,0,12.99,0,19.59h-20.61c0-.89,0-1.82,0-2.74-.09-7.6-4.7-13.4-11.81-14.79-.5-.09-1.01-.13-1.52-.13-10.04,0-20.08-.09-30.13.02-7.14.09-13.14,6.57-13.31,14.1-.02,1.15,0,2.31,0,3.59"/>
  <path class="cls-1" d="M175.55,142.34h-41.56c-.25-3.15-.22-6.14,2.42-8.33,1.26-1.05,2.71-1.47,4.28-1.47,9.36-.02,18.72-.04,28.08,0,3.99.02,6.61,2.77,6.77,6.95.04.93,0,1.86,0,2.83"/>
</svg>