<?xml version="1.0" encoding="UTF-8"?>
<svg id="Layer_1" data-name="Layer 1" xmlns="http://www.w3.org/2000/svg" viewBox="0 0 288 303.32">
  <defs>
    <style>
      .cls-1 {
        fill: #c69c63;
        stroke-width: 0px;
      }
    </style>
  </defs>
  <path class="cls-1" d="M165.62,168.24c-1.37-1.92-2.46-3.46-3.78-5.31-.93,1.93-1.67,3.48-2.55,5.31h6.33ZM144.79,138.45c-4.25,10.16-8.33,19.9-12.47,29.8h11.57c1.44-6.87,4.55-12.81,9.13-18.04-2.71-3.88-5.33-7.62-8.23-11.76M104.32,130.78c5.25,9.39,10.36,18.53,15.73,28.13,4.04-9.65,7.87-18.8,11.77-28.13h-27.5ZM159.66,183.55c1.26,6.79,9.46,13.75,17.15,14.72,10.03,1.27,19.01-3.54,23.27-12.5,4.16-8.74,2.32-19.26-4.44-26.08-6.17-6.22-16.3-7.79-21.27-5.2.42.66.82,1.31,1.26,1.94,3.45,4.92,6.89,9.85,10.36,14.75,1.78,2.52,2.11,5.23.84,8-1.28,2.81-3.64,4.16-6.64,4.34-.92.05-1.85.02-2.77.02h-17.77M64.49,153.55c-11.45-1.27-21.7,5.9-24.41,16.81-2.74,11,2.79,22.35,13.02,26.74,10.2,4.37,22.05.38,27.72-9.35,5.17-8.86,3.77-21.5-3.09-27.12-.29.56-.59,1.08-.85,1.62-2.73,5.55-5.42,11.11-8.17,16.64-1.7,3.41-4.96,5.17-8.09,4.51-5.08-1.07-7.59-6.21-5.28-11.08,2.94-6.2,6.01-12.34,9.15-18.77M57.12,213.85c-2.36-.64-4.75-1.15-7.06-1.93-16.25-5.48-26.64-21.71-25.22-39.32,1.36-16.92,14.19-31.26,30.81-33.77,4.55-.69,9.31,0,13.98.21,1.05.05,1.82.38,2.44-.9,4.8-9.91,9.67-19.79,14.73-30.13-3.56,0-6.81.05-10.05-.01-3.51-.06-6.22-2.2-7.21-5.54-1.31-4.47,1.77-9.38,6.33-9.49,7.85-.2,15.72-.21,23.56-.01,5.18.13,8.28,5.73,6.09,10.69-1.35,3.08-2.95,6.05-4.42,9.07-.37.76-.7,1.55-1.21,2.68,1.04.05,1.83.11,2.62.11,13.02,0,26.03.09,39.05-.05,3.87-.04,6.54,1.41,8.71,4.62,4.41,6.54,9.05,12.92,13.5,19.43.94,1.38,1.67,1.76,3.33,1.12,25.64-9.88,52.41,11.04,49.87,38.91-1.59,17.52-15.16,31.69-32.39,33.85-.43.05-.84.29-1.26.44h-6.01c-.51-.15-1.02-.37-1.54-.43-8.16-.96-15.17-4.4-21.13-10.12-5.59-5.37-9.06-12-10.8-19.74-7.02,0-13.94-.13-20.86.05-4.34.11-7.24-1.62-9.36-5.48-7.34-13.36-14.83-26.63-22.27-39.94-.4-.72-.85-1.42-1.47-2.43-.99,1.97-1.82,3.61-2.63,5.27-.84,1.73-1.66,3.48-2.46,5.18.87.8,1.56,1.42,2.23,2.07,20.35,19.53,13.36,53.94-12.92,63.43-2.51.91-5.15,1.44-7.73,2.15h-9.25Z"/>
</svg>