<?xml version="1.0" encoding="UTF-8"?>
<svg id="Layer_1" data-name="Layer 1" xmlns="http://www.w3.org/2000/svg" viewBox="0 0 1080 1080">
  <defs>
    <style>
      .cls-1 {
        fill: #fef8ed;
      }

      .cls-1, .cls-2, .cls-3, .cls-4, .cls-5, .cls-6, .cls-7 {
        stroke-width: 0px;
      }

      .cls-2 {
        fill: #fffcf7;
      }

      .cls-3 {
        fill: #fffefc;
      }

      .cls-4 {
        fill: #fef8ef;
      }

      .cls-5 {
        fill: #fef9ef;
      }

      .cls-6 {
        fill: #fef9f0;
      }

      .cls-7 {
        fill: #f3b81b;
      }
    </style>
  </defs>
  <path class="cls-7" d="m558.91,220.99c190.28-.34,345.72,154.83,345.7,345.09-.02,190.15-155.68,345.42-345.86,345-188.32-.42-343.14-155-343.84-343.29-.7-190.46,154.03-346.46,343.99-346.8Z"/>
  <path class="cls-3" d="m778.27,445.47c-65.38,53.02-130,107.03-196.59,158.48-20.65,15.95-43.92,8.22-58.61-13.02-14.96-21.65-12.75-48.84,9.79-58.84,78.72-34.94,159.57-65.08,239.61-97.04,1.94,3.47,3.87,6.95,5.81,10.42Z"/>
  <path class="cls-4" d="m454.3,357.39c-.8,8.5-5.61,15.06-13.91,13.24-19.61-4.29-24.66-22.23-29.65-38.05-3.24-10.27,5.03-15.48,15.22-14.9,9.09.51,29.15,29.15,28.34,39.72Z"/>
  <path class="cls-5" d="m709.54,332.49c-5.97,14.02-10.28,31.9-28.38,37.89-9.39,3.11-18.39-4.53-15.29-14.43,4.91-15.7,9.44-33.95,29.32-38.1,8.06-1.68,13.72,3.76,14.35,14.64Z"/>
  <path class="cls-1" d="m305.9,580.5c-12.17-.74-28.52,1.93-29.25-15.12-.79-18.38,16.09-15.47,27.88-15.2,11.45.26,28.56-4.79,29.18,13.76.6,17.74-15.59,15.71-27.81,16.56Z"/>
  <path class="cls-1" d="m816.07,580.5c-12.04-.87-28.26,2.62-30.15-14.21-2.18-19.42,14.95-16.07,26.61-16.13,11.75-.06,28.68-4.21,30.4,12.88,1.75,17.42-14.32,16.85-26.87,17.45Z"/>
  <path class="cls-2" d="m544.63,307.29c.68-10.9-1.46-25.64,14.09-25.52,21.02.17,15.17,18.41,15.93,30.93.68,11.18.73,25.85-13.89,25.64-20.14-.28-15.05-18.28-16.14-31.06Z"/>
  <path class="cls-6" d="m366.29,444.54c-2.93,11.26-9.4,18.37-19.02,13.15-13.46-7.3-33.09-9.96-34.43-30.03-.76-11.39,9.66-15.12,18.53-11.37,14.22,6.02,31.2,10.23,34.92,28.25Z"/>
  <path class="cls-6" d="m327.71,714.83c-9.55-1.85-17.01-6.56-14.9-14.88,4.97-19.6,22.79-24.73,39.47-28.89,8.49-2.12,15.07,4.84,13.16,13.41-4.52,20.23-23.85,22.8-37.73,30.36Z"/>
  <path class="cls-6" d="m807.33,697.71c-.54,10.67-6.25,17.97-13.74,16.1-16.61-4.14-34.41-9.55-39.49-29.17-2.19-8.44,4.23-15.48,12.9-13.68,17.11,3.56,32.68,10.77,40.34,26.75Z"/>
</svg>