<?xml version="1.0" encoding="UTF-8"?>
<svg id="Layer_1" data-name="Layer 1" xmlns="http://www.w3.org/2000/svg"  viewBox="0 0 1080 1080">
  <defs>
    <style>
      .cls-1 {
        stroke-width: 0px;
        fill:white;
      }
    </style>
  </defs>
  <path class="cls-1" d="m466.89,198.34c28.78,15.38,59.31,28.23,86,46.64,65.45,45.15,91.77,110.27,89.71,190.8-59.26,13.67-111.41,37.75-156.86,80.21-15.93,14.88-52.65,13.52-78.67,10.17-36.86-4.74-40.79-38.83-45.87-70.12,22.77-1.2,45.45-2.4,68.13-3.59,0-2.88,0-5.76,0-8.64-24.44-3.41-48.89-6.81-73.33-10.22.81-5.12,1.62-10.23,2.43-15.35h84.99c.26-3.53.53-7.05.79-10.58h-82.6c5.54-83.27,60.09-74.24,114.77-64.97-53.46-40.73-73.01-29.83-97.67-7.43-24.11,21.91-40.58,52.24-60.28,78.69,22.93,12.73,22.93,13.39,3.59,30.53,27.28,57.73,47.68,128.26,135.23,97.32-16.72,42.21-32.24,81.41-48.57,122.63-82.63,17.92-189.6-53.51-219.7-138.83-4.16-11.79-9.84-23.05-14.82-34.55,0-39.03,0-78.06,0-117.09,2.45-3.57,5.98-6.8,7.19-10.75,15.24-49.98,39.2-94.17,85.59-121.68,26.75-15.87,55.18-28.9,82.86-43.21,39.03,0,78.06,0,117.09,0Z"/>
  <path class="cls-1" d="m766.94,198.34c6.54,8.55,13.08,17.09,20.11,26.29-12.92,13.64-25.95,27.39-43.02,45.42,53.68,3.78,108.55-9.53,143.63,38.8,29.69,40.9,15.91,88.78,17.26,133.89.22,7.36-11.18,15.06-20.94,20.1-11.63-50.92,6.55-108.06-37.62-141.63-24.11-18.33-62.16-18.33-93.92-26.59-1.88,3.6-3.75,7.2-5.63,10.8,13.55,14.16,27.09,28.32,42.05,43.96-8.45,8.47-16.13,16.17-22.54,22.59-29.81-29.38-58.11-57.27-87.66-86.39,27.02-29.11,53.99-58.17,80.96-87.23,2.44,0,4.88,0,7.32,0Z"/>
  <path class="cls-1" d="m174.16,666.71h27.48c5.84,49.92-12.75,108.2,33.87,142.05,24.12,17.52,61.56,16.71,92.99,24.18,1.3-3.47,2.61-6.95,3.91-10.42-12.96-13.73-25.93-27.46-39.85-42.2,7.33-7.81,14.6-15.54,20.11-21.42,28.55,28.32,56.52,56.06,84.71,84.03-26.21,23.69-55.59,50.24-87.43,79.01-.87-.81-9.19-8.48-18.11-16.73,14.03-14.81,27.08-28.59,46.98-49.59-70.89,6.31-132.78,4.15-164.67-64.5v-124.41Z"/>
  <path class="cls-1" d="m670.02,930.03c-120.21,9.82-241.81-100.48-234.28-246.95,5.69-110.71,99.92-231.58,252.56-222.82,107.58,6.18,227.8,98.96,219.17,252.17-6.07,107.78-101.69,228.52-237.45,217.59Zm67.11-291c1.9-1.54,3.8-3.07,5.7-4.61-3.59-7.37-5.54-16.42-11.07-21.8-17.6-17.12-34.4-38.24-55.9-46.8-10.04-4-32.52,14.97-45.06,27.74-13.34,13.58-30.7,32.79-29.62,48.39,1.2,17.29,18.05,42.14,33.83,47.87,27.26,9.91,30.99,25.1,29.55,48.67-1.11,18.14-.22,36.41-.22,54.61-2.6,2.08-5.2,4.16-7.8,6.24-18.19-16.92-36.38-33.83-56.02-52.09-7.12,58.16,64,51.93,70.42,92.9,8.62-9.91,14.88-24.16,23.65-25.94,35.44-7.16,53.41-33.17,55.81-62.47,2.63-32.08-20.64-54.1-53.59-61.87-5.5-1.3-10.87-3.16-14.9-4.34v-95.37c23.47,20.77,39.35,34.81,55.22,48.86Z"/>
  <path class="cls-1" d="m681.06,796.06v-84.46c21.11,3.19,40.33,3.56,42.31,32.61,2.12,31.09-4.53,52.06-42.31,51.85Z"/>
  <path class="cls-1" d="m663,605.25v62.37c0,5.87-5.77,10.05-11.32,8.15-20.92-7.17-32.22-22.25-28.6-43.57,2.05-12.04,14.91-22.25,25.14-32.91,2.9-3.02,7.57-3.5,11.03-1.14h0c2.35,1.6,3.75,4.26,3.75,7.1Z"/>
</svg>