<?xml version="1.0" encoding="UTF-8"?>
<svg id="Layer_1" data-name="Layer 1" xmlns="http://www.w3.org/2000/svg" viewBox="0 0 309.45 295.62">
  <defs>
    <style>
      .cls-1 {
        fill: #c69c63;
        stroke-width: 0px;
      }
    </style>
  </defs>
  <path class="cls-1" d="M127.45,91.31c-2.34.03-4.2,1.86-4.16,4.1s1.99,4.1,4.25,4.08c2.26-.02,4.17-1.94,4.15-4.17-.02-2.27-1.88-4.03-4.24-4.01M125.7,112.38c-.38-.53-.68-.91-.95-1.31-2.34-3.51-4.68-7.02-7.02-10.53-1.03-1.53-1.68-1.56-2.67-.08-3.86,5.76-7.71,11.52-11.53,17.31-.32.49-.63,1.34-.41,1.72.23.4,1.11.59,1.71.6,11.37.03,22.75.03,34.11,0,.64,0,1.47-.23,1.85-.66.22-.26-.16-1.2-.49-1.69-2.53-3.86-5.11-7.7-7.67-11.54-1.1-1.64-1.68-1.63-2.83.08-1.34,1.99-2.67,3.98-4.1,6.12M121.98,85.11c11.12,0,22.24,0,33.36,0,2.77,0,3.67.88,3.67,3.58,0,12.95,0,25.89,0,38.84,0,2.7-.89,3.59-3.65,3.59-22.29,0-44.58,0-66.87,0-2.79,0-3.67-.85-3.67-3.57,0-12.95,0-25.89,0-38.84,0-2.72.9-3.6,3.66-3.6,11.17,0,22.34,0,33.51,0"/>
  <path class="cls-1" d="M122.75,171.16h-44.67c-2.21,0-2.55-.34-2.55-2.52,0-2.25.02-4.5,0-6.75-.01-1.38.65-2.03,2.05-1.99.31,0,.61,0,.92,0h88.59c2.71,0,2.93.22,2.93,2.91,0,2,0,4,0,6,0,1.97-.39,2.35-2.42,2.35h-44.83"/>
  <path class="cls-1" d="M175.97,183.97c1.14-4.52,2.24-8.88,3.35-13.22,2.82-11.03,5.66-22.05,8.49-33.07.51-1.99.86-2.28,2.92-2.31,1.63-.01,3.26-.02,4.9,0,2.34.03,2.95.74,2.53,3.13-1.01,5.8-2.07,11.6-3.12,17.39-1.61,8.94-3.22,17.88-4.84,26.82-.07.39-.19.77-.3,1.24h-13.94Z"/>
  <path class="cls-1" d="M70.94,184.02h-13.85c-.4-2.15-.83-4.34-1.22-6.52-2.32-12.82-4.63-25.63-6.94-38.44-.09-.49-.17-.99-.21-1.48-.11-1.26.46-2.09,1.77-2.14,2.24-.07,4.49-.06,6.73,0,1.34.03,1.69,1.07,1.97,2.13,1.71,6.72,3.44,13.44,5.16,20.16,2.11,8.27,4.21,16.54,6.31,24.81.11.43.18.87.3,1.48"/>
  <rect class="cls-1" x="83.78" y="175.77" width="10.2" height="53.25"/>
  <rect class="cls-1" x="151.47" y="175.79" width="10.27" height="53.21"/>
  <path class="cls-1" d="M108.48,139.62h28.49c.01,5.53-1.28,10.62-4.4,15.19-.2.29-.76.46-1.16.46-5.76.03-11.53.04-17.29,0-.46,0-1.09-.31-1.34-.67-3.06-4.5-4.26-9.52-4.31-14.97"/>
  <rect class="cls-1" x="166.75" y="188.73" width="22.27" height="12.58"/>
  <rect class="cls-1" x="58.02" y="188.72" width="20.81" height="12.59"/>
  <path class="cls-1" d="M55.83,229.1c.64-7.8,1.26-15.36,1.89-22.99h10.69c-1.72,5.42-3.41,10.75-5.11,16.07-.64,2-1.23,4.01-1.96,5.98-.15.4-.78.86-1.22.9-1.36.12-2.73.04-4.29.04"/>
  <path class="cls-1" d="M101.33,206.1h10.68c.63,7.66,1.25,15.24,1.89,22.99-1.67,0-3.19.04-4.7-.03-.28-.01-.68-.39-.78-.69-2.36-7.36-4.69-14.72-7.09-22.27"/>
  <path class="cls-1" d="M132.99,229.1c.64-7.75,1.27-15.34,1.9-23h10.57c-.1.43-.16.85-.29,1.25-2.16,6.81-4.34,13.61-6.45,20.42-.33,1.06-.82,1.43-1.92,1.34-1.2-.09-2.42-.02-3.81-.02"/>
  <path class="cls-1" d="M189.26,206.16c.63,7.61,1.26,15.17,1.9,22.94-1.6,0-3.12.05-4.63-.05-.33-.02-.79-.54-.91-.91-2.35-7.27-4.66-14.54-7.03-21.98h10.67Z"/>
  <path class="cls-1" d="M111.57,201.41c-4.1,0-7.97.02-11.84-.03-.31,0-.88-.45-.88-.69-.06-3.98-.04-7.96-.04-12.05,3.77,0,7.33-.03,10.9.02,1.11.01,1.84.64,1.85,1.78.03,3.59.01,7.18.01,10.97"/>
  <path class="cls-1" d="M135.43,201.3c0-3.7-.02-7.29.01-10.88,0-1.14.75-1.76,1.86-1.77,3.05-.04,6.11-.01,9.28-.01v12.66h-11.15Z"/>
</svg>