<?xml version="1.0" encoding="UTF-8"?>
<svg id="Layer_1" data-name="Layer 1" xmlns="http://www.w3.org/2000/svg" viewBox="0 0 1080 1080">
  <defs>
    <style>
      .cls-1 {
        stroke-width: 0px;
        fill:white
      }
    </style>
  </defs>
  <path class="cls-1" d="m622.74,825.56v-41.8c20.58,0,40.64-.25,60.68.06,31.35.47,47.13-14.33,47.11-46.05-.1-144.35-.22-288.7.09-433.06.07-33.62-16.01-48.38-49.08-48.14-67.02.49-134.04.22-201.06.08-16.41-.03-35.65,3.6-36.38-22.16-.72-25.38,17.35-24.03,34.61-24.01,77.33.08,154.67-.31,231.99.16,43.14.26,65.77,22.89,65.86,66.21.32,162.4.34,324.79-.01,487.19-.09,43.1-22.92,65.23-66.29,65.81-25.76.34-51.54-.21-77.3-.57-2.34-.03-4.65-1.64-10.22-3.74Z"/>
  <path class="cls-1" d="m281.2,515.21c0-78.65-.28-157.3.09-235.94.25-53.92,52.74-88.82,101.78-66.91,6.84,3.06,13.51,16.21,12.69,23.89-.77,7.29-11.52,19.36-17.78,19.31-48.25-.44-51.15,30.08-50.92,66.82.83,131.5.31,263.02.33,394.53,0,60.42,6.65,66.85,68.78,66.87,43.84.01,87.76-1.49,131.45,1.06,11.05.64,21.34,14.19,31.99,21.81-10.49,7.77-20.75,21.9-31.5,22.27-61.81,2.15-123.75,1.69-185.62.81-38.09-.54-60.83-24.16-61.11-63.1-.6-83.8-.18-167.61-.19-251.41Z"/>
  <path class="cls-1" d="m666.94,321.85v41.12h-275.25v-41.12h275.25Z"/>
  <path class="cls-1" d="m573.46,503.12h-181.21v-42.64h181.21v42.64Z"/>
  <path class="cls-1" d="m575.44,688.98h-183.63v-42.92h181.63c.62,13.23,1.23,26.46,2,42.92Z"/>
  <path class="cls-1" d="m390.37,595.45v-41.32h135.79v41.32h-135.79Z"/>
</svg>