<svg xmlns="http://www.w3.org/2000/svg" width="38" height="38" viewBox="0 0 38 38"><defs><style>.a{opacity:0.81;}.b,.d{fill:#fff;}.b,.c{stroke:#707070;stroke-width:2px;}.c,.e{fill:none;}.f{stroke:none;}</style></defs><g transform="translate(-1515 -202)"><g class="a" transform="translate(-36.807 2.193)"><g class="b" transform="translate(1560.807 205.807)"><rect class="f" width="21" height="21" rx="4"/><rect class="e" x="1" y="1" width="19" height="19" rx="3"/></g><g class="c" transform="translate(1560.807 211.807)"><path class="f" d="M0,0H21a0,0,0,0,1,0,0V11a4,4,0,0,1-4,4H4a4,4,0,0,1-4-4V0A0,0,0,0,1,0,0Z"/><path class="e" d="M2,1H19a1,1,0,0,1,1,1v9a3,3,0,0,1-3,3H4a3,3,0,0,1-3-3V2A1,1,0,0,1,2,1Z"/></g><rect class="d" width="15" height="15" transform="translate(1563.807 215.807)"/><path class="c" d="M1578.807,223.807v10.008" transform="translate(-7.63 -4.43)"/><path class="c" d="M1575.737,226.625l4.373-4.373,4.373,4.373" transform="translate(-9.053 -3.448)"/></g><rect class="e" width="38" height="38" transform="translate(1515 202)"/></g></svg>