<?xml version="1.0" encoding="UTF-8"?>
<svg id="Layer_1" data-name="Layer 1" xmlns="http://www.w3.org/2000/svg" viewBox="0 0 324.77 272.68">
  <defs>
    <style>
      .cls-1 {
        fill: #c69c63;
        stroke-width: 0px;
      }
    </style>
  </defs>
  <path class="cls-1" d="M36.09,44.11c1.52-3.39,4.13-4.56,7.87-4.54,29.59.1,59.18.05,88.77.05h2.52v43.46c-2.92,1.2-5.88,2.13-8.56,3.57-11.52,6.2-17.1,18.36-15.85,29.39,1.54,13.65,10.33,23.73,23.05,26.98,1.03.26,1.49.58,1.49,1.72-.04,13.42-.02,26.84-.02,40.26v1.76h-2.42c-29.66,0-59.31-.05-88.97.05-3.74.01-6.34-1.16-7.87-4.54v-38.43c7.68.02,15.36.12,23.04.03,2.4-.03,4.05-1.59,4.9-3.78.35-.92.47-1.99.47-2.99.03-15.8.03-31.59.02-47.39,0-3.92-2.17-6.75-5.59-6.8-7.61-.11-15.23,0-22.84.03v-38.83Z"/>
  <rect class="cls-1" x="36.09" y="94.8" width="15.93" height="37.2"/>
  <path class="cls-1" d="M147.79,186.77v-42.77c3.72-1.76,7.51-2.99,10.67-5.13,10.8-7.33,15.58-17.73,13.42-30.5-2.15-12.67-10.04-20.83-22.47-24.54-1-.3-1.71-.42-1.7-1.75.05-13.9.04-27.8.04-41.69,0-.19.09-.38.18-.76h2.2c29.86,0,59.73,0,89.59,0,5,0,7.27,2.25,7.27,7.22,0,11.17,0,22.35,0,33.52v2.49h-2.35c-6.45,0-12.9-.02-19.36,0-4.18.02-6.69,2.46-6.69,6.59-.03,15.94-.02,31.88,0,47.82,0,4.25,2.48,6.69,6.79,6.71,6.39.04,12.77.01,19.15.01h2.34c.05.78.12,1.38.12,1.97,0,11.38.01,22.76,0,34.13,0,4.16-2.47,6.67-6.58,6.68-30.28,0-60.55,0-90.83,0h-1.79Z"/>
  <rect class="cls-1" x="231.07" y="95.03" width="15.8" height="36.7"/>
  <path class="cls-1" d="M135.28,96.33v34.2c-7.16-1.74-12.41-9.52-12.25-18.04.14-7.16,5.92-14.82,12.25-16.15"/>
  <path class="cls-1" d="M147.73,96.27c7.11,1.86,12.38,9.38,12.34,17.37-.04,7.66-5.46,15.18-12.25,16.88-.03-.27-.09-.52-.09-.78,0-11.1,0-22.2,0-33.48"/>
</svg>