<?xml version="1.0" encoding="UTF-8"?>
<svg id="Layer_1" data-name="Layer 1" xmlns="http://www.w3.org/2000/svg" viewBox="0 0 269.62 239.77">
  <defs>
    <style>
      .cls-1 {
        fill: #c69c63;
        stroke-width: 0px;
      }
    </style>
  </defs>
  <path class="cls-1" d="M154.2,41.57h-53.89c-.05.31-.1.48-.1.65,0,9.28-.04,18.55.04,27.83,0,.81.54,1.79,1.11,2.41,3.97,4.34,7.99,8.64,12.07,12.86.56.58,1.56,1,2.36,1.01,7.61.07,15.22.07,22.83,0,.8,0,1.8-.44,2.36-1.02,4.08-4.23,8.11-8.51,12.05-12.88.66-.73,1.09-1.93,1.12-2.93.13-3.87.05-7.75.05-11.62v-16.32ZM112.66,200.47c-.23-.14-.44-.32-.68-.42-4.07-1.57-6.22-4.69-6.23-9.16-.01-9.22,0-18.44,0-27.65,0-20.84-.01-41.68.02-62.53,0-1.21-.32-2.08-1.15-2.95-4.74-4.97-9.4-10.02-14.13-15-3.51-3.69-5.14-8.1-5.13-13.2.02-8.69,0-17.38,0-26.07v-1.97h-3.21c0,1.9.02,3.71,0,5.51-.04,3.38-1.71,6.02-4.46,7.08-2.78,1.07-5.56.2-7.89-2.37-.29-.32-.96-.52-1.4-.44-4.05.71-6.91-1.67-6.94-5.88-.01-1.29,0-2.58-.41-3.55-1.09-1.09-2.5-1.99-3.18-3.3-1-1.93.28-4.43,2.41-5.04,1.05-.3,1.26-.79,1.19-1.72-.05-.64-.01-1.29,0-1.94,0-5.22,2.8-7.52,7.85-6.36,1.44-2.09,3.35-3.44,6-3.46,3.72-.02,6.68,2.95,6.84,6.94.07,1.98.01,3.97.01,6.06,1.95.13,3.39.41,4.68-1.79,2.77-4.73,9.67-4.35,12.33.48.6,1.09,1.2,1.44,2.38,1.44,17.12-.04,34.25-.04,51.37,0,1.11,0,1.7-.31,2.26-1.35,2.64-4.86,9.44-5.34,12.33-.66,1.26,2.05,2.61,2.19,4.72,1.82,0-1.58,0-3.2,0-4.82,0-3.96,1.58-6.63,4.55-7.72,3.02-1.11,5.78-.11,8.27,2.98.98-.09,1.94-.29,2.9-.25,2.69.14,4.79,2.36,4.97,5.15.05.82.06,1.65.01,2.47-.08,1.39-.1,2.46,1.71,2.98,1.58.46,2.27,2.06,2.13,3.84-.15,1.77-1.13,2.89-2.72,3.5-.31.12-.65.16-1.1.27,0,1.46.02,2.86,0,4.25-.06,3.92-3.03,6.35-6.83,5.7-.52-.09-1.3.18-1.64.57-2.03,2.29-4.76,3.17-7.48,2.26-2.72-.91-4.59-3.42-4.72-6.52-.08-1.99-.01-3.98-.01-6.11h-3.22v1.81c0,8.51-.07,17.03.03,25.54.06,5.64-1.73,10.39-5.65,14.41-4.55,4.67-8.92,9.51-13.43,14.21-.95,1-1.36,1.99-1.36,3.4.04,29.12-.06,58.24.1,87.36.03,5.88-1.52,10.2-7.32,12.16h-3.46c-5.78-1.97-7.42-6.28-7.32-12.16.23-13.43.07-26.87.07-40.3v-2.04h-6.97v2.21c0,14.14-.01,28.28,0,42.42,0,3.32-1.06,6.13-3.73,8.09-1.05.77-2.34,1.2-3.51,1.79h-3.81Z"/>
  <path class="cls-1" d="M144.89,64.1c-.03,9.99-8,18.01-17.87,17.97-9.66-.04-17.59-8.26-17.51-18.16.08-9.89,8.14-18.02,17.78-17.92,9.76.1,17.63,8.21,17.6,18.1"/>
</svg>