<?xml version="1.0" encoding="UTF-8"?>
<svg id="Layer_1" data-name="Layer 1" xmlns="http://www.w3.org/2000/svg" viewBox="0 0 1080 1080">
  <defs>
    <style>
      .cls-1 {
        stroke-width: 0px;
      }
    </style>
  </defs>
  <path class="cls-1" d="m569.06,862.37c0-48.84,1.07-92.61-.46-136.29-.75-21.31-3.39-43.51-10.44-63.44-11.91-33.66-39.7-42.59-73.82-41.26-32.91,1.28-55.35,17.45-61.43,47.18-7.09,34.65-7.28,70.84-8.98,106.43-1.29,27.02-.26,54.15-.26,86.99-54.75,0-108.46,1.97-161.74-1.92-8.98-.66-22.65-26.48-23.03-40.96-2.19-85.19-1.08-170.47-1.08-255.72,0-12.27,0-24.54,0-37.87-20.68,11.3-37.95,20.74-55.21,30.17-3.5-3.49-7.01-6.98-10.51-10.46,6.54-12.01,10.75-26.33,19.98-35.68,93.41-94.65,187.94-188.2,281.38-282.81,19.4-19.64,34.46-21.54,54.72-1,94.32,95.56,189.77,190.02,284.12,285.55,8.59,8.7,12.29,22.23,18.26,33.52-3.14,3.49-6.28,6.97-9.42,10.46-17.4-8.86-34.8-17.73-56.25-28.66,0,47.58,0,95.71,0,143.83,0,50.37-.42,100.75.17,151.12.28,24.23-7.72,40.5-34.27,40.73-48.86.43-97.73.12-151.74.12Z"/>
</svg>