<?xml version="1.0" encoding="UTF-8"?>
<svg id="Layer_1" data-name="Layer 1" xmlns="http://www.w3.org/2000/svg" viewBox="0 0 1080 1080">
  <defs>
    <style>
      .cls-1 {
        stroke-width: 0px;
              fill:white

      }
    </style>
  </defs>
  <path class="cls-1" d="m391.37,693.57v56.68c19.64,0,40.12-3.76,58.11,1.33,11.92,3.37,25.64,18.26,28.17,30.2,1.5,7.08-16.31,25.2-26.94,26.57-29.45,3.78-59.73,2.16-89.62,1.16-26.42-.88-31.27-18.94-31.13-41.52.49-77.33-.37-154.67.56-231.98.23-19.41-4.29-30.35-23.44-39.76-52.56-25.82-77.58-80.83-64.88-133.87,12.62-52.71,62.71-92.07,117.32-92.21,55.17-.13,104.65,38.16,117.93,91.28,13.25,52.99-11.51,108.13-63.71,134.38-18.27,9.19-25.5,18.95-24.33,39.27,1.77,30.81.46,61.8.46,92.35,25.63,5.9,61.99-4.97,57.53,32.99-1.71,14.58-29.22,26.13-44.97,39.07-3.68-1.98-7.37-3.96-11.05-5.95Zm-91.04-304.52c-.57,31.11,27.4,59.82,58.81,60.35,31.19.53,60.03-27.46,60.48-58.7.45-31.18-27.51-59.88-58.84-60.39-31.25-.51-59.88,27.31-60.46,58.74Z"/>
  <path class="cls-1" d="m688.44,509.85c-36.23,0-72.47-.59-108.69.18-28.81.61-40.19-12.7-39.84-40.98,1.53-123.04-14.3-108.4,106.72-108.88,51.22-.2,102.45.46,153.66-.22,26.21-.35,39.89,10.12,39.6,37.31-1.36,128.13,15.72,111.87-106.48,112.59-14.99.09-29.98.01-44.98,0Z"/>
  <path class="cls-1" d="m690.03,570.16c37.48,0,74.96.33,112.44-.12,24.59-.29,37.45,10.52,37.37,35.63-.09,26.24-.16,52.47.02,78.71.17,25.32-12.95,35.67-37.39,35.57-74.96-.31-149.93.56-224.87-.4-36.79-.47-37.61-3.74-37.41-91.39.06-27.21-5.85-58.37,37.42-58.06,37.48.27,74.96.06,112.44.06Z"/>
</svg>