<?xml version="1.0" encoding="UTF-8"?>
<svg id="Layer_1" data-name="Layer 1" xmlns="http://www.w3.org/2000/svg" viewBox="0 0 1080 1080">
  <defs>
    <style>
      .cls-1 {
        stroke-width: 0px;
                fill:white

      }
    </style>
  </defs>
  <path class="cls-1" d="m308.52,590.63c-28.4-7-62.24-5.1-73.62-20.16-29.3-38.78-59.72-82.73-69.45-128.88-15.81-75.03,40.68-144.16,113.72-157.88,73.89-13.88,145.21,30.65,166.2,104.4,11.03,38.76,6.27,76.28-14.65,110.63-14.71,24.15-27.72,52.23-49.12,68.54-19.59,14.93-49.43,16.42-73.09,23.35Zm67.52-166.14c-7.23-45.09-35.31-71.75-72.19-70.06-36.71,1.68-61.92,28.24-66.14,70.06h138.34Z"/>
  <path class="cls-1" d="m667.53,498c-46.71,0-93.48-1.42-140.1.55-27.61,1.17-35.93-9.2-34.07-35.38,1.87-26.22,1.26-52.7.15-79-.88-20.69,5.09-30.45,28.06-30.24,97,.9,194.02.75,291.02.1,20.65-.14,27.36,8.26,26.72,27.88-.98,29.91-1.06,59.9,0,89.8.74,20.87-8.65,26.88-28.06,26.55-47.89-.81-95.81-.27-143.71-.26Z"/>
  <path class="cls-1" d="m666.83,728.37c-47.91,0-95.83-.72-143.71.33-21.26.47-30.71-6.18-29.68-28.66,1.37-29.88-1.59-60.07,1.5-89.69.96-9.27,15.31-24.39,23.75-24.54,98.18-1.73,196.41-1.74,294.59-.04,8.71.15,23.66,14.73,24.56,23.73,3.08,30.83.37,62.19,1.47,93.29.76,21.61-10.01,26.1-28.75,25.82-47.9-.72-95.81-.24-143.72-.24Z"/>
  <path class="cls-1" d="m361.34,615.6c10.59,39.61-23.33,20.33-37.91,29.91-6.84,17.22-2.67,25.68,19.76,26.49,8.12.29,15.85,11.38,24.88,18.42-19.83,16.12-54.61-4.97-45.27,36.04,12.3,1.29,24.92,2.61,37.3,3.91,5.43,37.04-14.28,66.79-45.63,69.95-37.04,3.73-65.1-22.41-65.4-61.56-.32-40.35-.07-80.71-.07-123.16h112.35Z"/>
</svg>