<?xml version="1.0" encoding="UTF-8"?>
<svg id="Layer_1" data-name="Layer 1" xmlns="http://www.w3.org/2000/svg" viewBox="0 0 1080 1080">
  <defs>
    <style>
      .cls-1 {
        fill: #c53d27;
      }

      .cls-1, .cls-2, .cls-3, .cls-4, .cls-5, .cls-6, .cls-7, .cls-8, .cls-9, .cls-10, .cls-11, .cls-12, .cls-13, .cls-14, .cls-15, .cls-16, .cls-17 {
        stroke-width: 0px;
      }

      .cls-2 {
        fill: #34b1e6;
      }

      .cls-3 {
        fill: #30a3dc;
      }

      .cls-4 {
        fill: #32a7df;
      }

      .cls-5 {
        fill: #be3c27;
      }

      .cls-6 {
        fill: #2fa2db;
      }

      .cls-7 {
        fill: #c53e27;
      }

      .cls-8 {
        fill: #d24027;
      }

      .cls-9 {
        fill: #ba3b27;
      }

      .cls-10 {
        fill: #34aee3;
      }

      .cls-11 {
        fill: #ce3d27;
      }

      .cls-12 {
        fill: #c13d27;
      }

      .cls-13 {
        fill: #ca3e27;
      }

      .cls-14 {
        fill: #c23d27;
      }

      .cls-15 {
        fill: #38baec;
      }

      .cls-16 {
        fill: #34aee4;
      }

      .cls-17 {
        fill: #33aae1;
      }
    </style>
  </defs>
  <path class="cls-5" d="m749.66,352.22c17.23,39.25,21.4,79.38,8.07,120.68-18.47.12-28.49,13.95-39.78,25.16-60.07,59.64-119.67,119.75-179.76,179.37-12.15,12.05-23.14,26.92-43.48,25.42-18.45-6.3-32.56-16.98-37.3-37.08-5.08-6.79-10.15-13.57-15.23-20.36-5.03-16.85,8.87-24.34,17.52-33.8,20.77-22.72,44.29-42.83,66.15-68.17-13.36-10.75-30.42-11.2-43.42-19.62-23.9-13.9-35.8-36.93-46.52-60.92-10.24-22.3-10.14-45-2.67-68,7.82-17.03,10.58-39.29,37.5-36.88,10.25,15.49-1.79,28.44-5.43,42.04-10.63,39.77,2.66,76.81,35.95,96.91,30.14,18.21,68.29,11.78,94.93-15.98,25.9-27,30.46-61.9,12.04-92.24-21.39-35.23-59.38-48.53-100.17-35.78-12.2,3.81-23.94,15.51-37.96,4.12-1.53-28.91,21.13-30.83,40.5-36.5,26.61-1.2,53.39-3.84,78.67,7.99,22.87,11.48,41.97,26.91,52.55,51.06,2.37,5.65,3.9,11.6,4.98,17.63,3.73,20.76,12.91,20.96,26.55,7.58,14-13.74,27.2-28.35,42.02-41.17,9.48-8.2,18.12-22.05,34.29-11.44Z"/>
  <path class="cls-11" d="m510.01,329.64c-17.25,4.36-35.94,6.97-37.05,30.77l.25-.25c-19.95,4.3-25.95,20.18-30.76,37.05-37.04,35.32-67.49,77.71-112.3,104.7-15.95-36.55-20.53-74.04-9.43-112.85,61.4-59.35,121.78-119.72,181.12-181.13,36.4-10.54,71.85-7.06,106.57,7.21,5.23,9.79-.76,17.02-6.64,23-30.3,30.79-58.92,63.28-91.77,91.52Z"/>
  <path class="cls-15" d="m802.57,764.49c10.36,12.33,25.13,26.09,18.81,41.85-7.44,18.56-28.61,10.4-43.85,10.44-158.36.48-316.73.49-475.09,0-15.23-.05-36.4,8.17-43.84-10.43-6.31-15.77,8.56-29.47,18.87-41.81,15.87-3.74,32-3.62,48.16-3.61,142.92.08,285.84.08,428.75,0,16.17,0,32.3-.1,48.17,3.56Z"/>
  <path class="cls-9" d="m494.43,697.43c17.24-.37,25.53-14.24,35.84-24.48,64.41-64.01,128.18-128.66,193.15-192.08,7.98-7.78,16.89-32.43,34.31-7.97-4.14,45.49-28.59,80.66-58.28,112.8-25.06,27.13-51.06,53.39-76.65,80.04-14.93,32.87-42.76,53.49-70.44,74.34-32.8,4.12-52.32-9.83-57.94-42.65Z"/>
  <path class="cls-2" d="m802.57,764.49c-8.4,10.62-20.34,7.54-31.16,7.55-154.25.15-308.5.15-462.75,0-10.81-.01-22.75,3.08-31.18-7.5,4.8-7.82,9.59-15.64,14.39-23.46,76.71-4.61,153.43-3.42,230.15-.43,9.23,1.76,18.57,1.45,27.89,1.32,79.4-5.83,158.84-4.78,238.28-1,4.79,7.84,9.58,15.68,14.37,23.52Z"/>
  <path class="cls-8" d="m501.85,207.92c-.34,3.71.75,8.7-1.24,10.94-53.05,59.57-109.37,115.9-168.94,168.94-2.24,1.99-7.23.9-10.94,1.25,11.74-92.74,88.38-169.39,181.12-181.13Z"/>
  <path class="cls-7" d="m637.48,382.22c-12.76-17.24-27.79-32.21-44.99-45.02-7.27-8.23-4.15-16.69,1.68-23.03,22.91-24.92,43.15-52.83,74.17-69.08,25.86,14.7,46.73,34.04,58.04,62.3-22.9,32.94-42.41,69.91-88.9,74.83Z"/>
  <path class="cls-13" d="m668.34,245.09c-13.49,24.02-36.64,39.2-54.34,59.38-8.7,9.91-21.55,17.08-21.5,32.73-26.79-10.19-54.79-7.16-82.48-7.55,15.19-35.57,48.2-55.7,72.32-83.53,8.84-10.2,17.4-20.64,26.08-30.98,20.45,9.02,44.34,11.18,59.92,29.95Z"/>
  <path class="cls-13" d="m330.16,501.9c34.84-37.68,66.18-79.12,112.3-104.7-12.48,22.51-2.07,45,.07,67.5,1.7,1.94,3.86,4.57,3.05,6.33-18.16,39.42-43.92,71.11-87.36,84.41-14.9-14.94-24.31-32.76-28.05-53.55Z"/>
  <path class="cls-1" d="m358.21,555.45c31.46-27.13,66.08-51.32,84.32-90.74,15.77,16.83,21.52,42.25,44.98,52.5,9.94,14.31-.79,23.72-9.07,32.1-21.76,22.02-41.74,45.87-65.92,65.45-21.18-16.95-41.63-34.57-54.3-59.32Z"/>
  <path class="cls-14" d="m412.51,614.76c4.13-26.01,28.81-35.78,42.75-54.03,10.96-14.35,30.63-22.25,32.24-43.53,18.13,6.36,36.26,12.72,56.42,19.79-34.59,36.86-68.16,72.63-101.73,108.41-9.89-10.21-19.79-20.43-29.68-30.64Z"/>
  <path class="cls-12" d="m637.48,382.22c37.85-15.18,56.73-52.9,88.9-74.83,11.05,13.24,22.53,26.25,23.28,44.83-29.21,6.87-41.02,34.84-62.24,51.41-12.33,9.63-22.66,31.47-38.39,23.45-12.01-6.12-13.02-28.2-11.55-44.87Z"/>
  <path class="cls-16" d="m788.2,740.97c-10.4,13.4-25.25,8.37-38.33,8.46-67.46.45-134.93.19-202.39.18-2.76-13.8,13.57-11.51,16.98-20.16,8.01-7.36,17.4-11.43,28.27-12.13,60.43-.7,120.84-1.38,181.25.13,7.5,6.17,12.61,13.79,14.23,23.52Z"/>
  <path class="cls-10" d="m525.07,749.58c-64.94.02-129.88.29-194.82-.16-13.09-.09-27.91,4.95-38.38-8.34,1.53-9.78,6.71-17.38,14.15-23.62,60.71-1.03,121.42-1.82,182.12.52,17.27,4.71,32.47,11.89,36.93,31.6Z"/>
  <path class="cls-3" d="m525.07,749.58c-10.01-7.49-20.02-14.98-30.03-22.47-11.21-7.66-24.29-12.4-34.31-21.96-31.56-9.35-63.99-1.84-95.75-5.3-14.26-1.55-34.23,4.6-36.36-20.02,5.74-16.18,19.69-12.34,31.61-12.61,32.39-.71,64.79-1,97.18-1.46,12.33,10.55,24.67,21.11,37.01,31.67,15.49,18.44,28.11,41.5,58.32,36.23,3.65-2.73,6.95-2.36,9.92,1.09-5.07,4.95-10.13,9.9-15.2,14.86-7.47,0-14.93-.02-22.4-.03Z"/>
  <path class="cls-6" d="m562.67,734.75c-3.31-.36-6.62-.73-9.92-1.09,23.35-22.64,46.7-45.28,70.06-67.92,32.36.47,64.72.79,97.08,1.5,11.93.26,25.85-3.5,31.53,12.68.14,21.12-17.1,18.15-29.19,19.39-24.67,2.53-49.59.9-74.41,1.17-13.97.15-27.34.91-37.74,11.78-7.33,6.69-18.36,7.12-25.11,14.85-7.43,2.55-14.86,5.1-22.29,7.64Z"/>
  <path class="cls-4" d="m599.98,712.13c9.4-20.21,26.75-21.57,46.55-23.1,34.95-2.71,71.53,11.42,104.87-9.1,7.54,6.17,12.69,13.8,14.31,23.56.99,7.22-2.23,13.23-9.07,13.44-52.3,1.61-104.86,9.91-156.67-4.81Z"/>
  <path class="cls-4" d="m328.63,679.83c32.12,20.51,67.69,5.25,101.39,9.61,15.5,2.01,33.41-4.19,42.5,15.21.31,7.2-3.3,12.18-10.15,12.8-45.16,4.07-90.4,2.69-135.59.7-7.46-.33-14-4.87-12.42-14.59,1.48-9.87,6.83-17.42,14.26-23.72Z"/>
  <path class="cls-17" d="m314.37,703.55c52.62,14.37,105.35,12.82,158.15,1.1,10.12,4.87,17.61,12.37,22.52,22.46-50.55,0-101.11.27-151.66-.14-12.97-.11-27.67,4.4-37.36-9.51,2.78-4.64,5.56-9.28,8.35-13.91Z"/>
  <path class="cls-17" d="m599.98,712.13c43.71,0,87.43.24,131.14-.14,11.99-.1,25.43,3.88,34.59-8.5,2.75,4.65,5.5,9.31,8.25,13.96-9.66,13.93-24.37,9.41-37.34,9.52-50.55.41-101.11.15-151.66.14.28-9.74,5.29-14.72,15.02-14.98Z"/>
</svg>