<?xml version="1.0" encoding="UTF-8"?>
<svg id="Layer_1" data-name="Layer 1" xmlns="http://www.w3.org/2000/svg" viewBox="0 0 1080 1080">
  <defs>
    <style>
      .cls-1, .cls-2 {
        stroke-width: 0px;
                fill:white

      }

      .cls-2 {
        fill: #fff;
      }
    </style>
  </defs>
  <path class="cls-1" d="m794.91,393.15c-.28,115.81-55.62,210.94-116.32,303.69-28.4,43.39-58.93,85.4-89.28,127.48-32.12,44.54-52.08,44.54-82.97-1.56-56.31-84.05-117.25-165.75-165.3-254.35-46.21-85.19-62.83-179.18-28.14-275.74,29.94-83.32,122.01-147.38,211.24-149.33,62.73-1.37,121.77,5.33,172.81,46.39,71.3,57.36,97.4,110.67,97.96,203.43Zm-138.57-24c-28.55-17.43-60.38-38.01-93.49-56.27-8.61-4.74-23.74-6.65-31.6-2.25-34.99,19.58-68.43,41.93-95.92,59.19v144.14h221.01v-144.82Z"/>
  <path class="cls-2" d="m576.56,485.01c18.61-.87,31.87-1.49,45.5-2.13.45-58.55,20.52-119.25-55.93-145.36-25.88-8.84-96.23,21.95-97.54,49.91-1.49,31.68-.34,63.47-.34,97.54,18.15-.84,31.46-1.45,47.29-2.18v-73.48h61.03v75.69Z"/>
  <path class="cls-1" d="m576.56,485.01v-75.69h-61.03v73.48c-15.82.73-29.13,1.34-47.29,2.18,0-34.07-1.14-65.87.34-97.54,1.31-27.95,71.66-58.75,97.54-49.91,76.44,26.11,56.38,86.81,55.93,145.36-13.62.64-26.89,1.26-45.5,2.13Z"/>
</svg>