<?xml version="1.0" encoding="UTF-8"?>
<svg id="Layer_1" data-name="Layer 1" xmlns="http://www.w3.org/2000/svg" viewBox="0 0 1080 1080">
  <defs>
    <style>
      .cls-1 {
        stroke-width: 0px;
      }
    </style>
  </defs>
  <path class="cls-1" d="m760.5,303.4c-65.78-97.78-187.55-141.53-300.28-107.89-114.2,34.07-193.15,139.46-193.19,268.91,2.13,54.84,20.64,115.44,66.29,163.92,57.46,61.04,117.83,119.34,176.72,179.05,17.21,17.45,34.29,19.25,51.96,1.45,60.84-61.3,124.55-120.07,181.6-184.71,79.09-89.6,83.49-221.78,16.91-320.75Zm-103.79,250.11c-.52,7.36-12.51,18.13-20.72,19.8-15.62,3.18-32.35.92-52.99.92v-103.87h-89.5v97.3c-6.38,3.54-8.41,5.59-10.53,5.7-67.44,3.64-66.95,3.6-67.68-64.19-.36-33.55-3.99-67.08-3.79-100.6.05-8.86,6.77-20.21,13.97-26.05,29.18-23.64,58.67-47.27,90.4-67.16,10.29-6.45,27.81-2.14,41.93-1.22,4.09.27,7.81,5.88,11.75,8.98,31.34,24.67,80.65,44.04,89.86,75.23,14,47.43,1.02,103.12-2.69,155.14Z"/>
</svg>