<?xml version="1.0" encoding="UTF-8"?>
<svg id="Layer_1" data-name="Layer 1" xmlns="http://www.w3.org/2000/svg" viewBox="0 0 343.15 404.43">
  <defs>
    <style>
      .cls-1 {
        fill: #131331;
        stroke-width: 0px;
      }
    </style>
  </defs>
  <path class="cls-1" d="M84.25,160.89c-.02,30.19,24.74,54.77,55.14,54.75,29.91-.03,54.62-24.7,54.67-54.6.03-30.32-24.4-55.14-54.38-55.21-30.79-.08-55.41,24.38-55.43,55.06M137.28,360.41c-18.44-17.61-35.31-36.63-51.17-56.58-18.54-23.32-35.35-47.78-48.36-74.68-8.21-16.99-14.77-34.55-17.28-53.4-3.69-27.73,1.86-53.67,16.53-77.34,19.36-31.25,47.55-50.03,83.82-56.02,47.93-7.92,97.07,15.52,121.45,57.58,19.19,33.11,21.27,67.73,8.85,103.6-9.26,26.73-23.3,50.93-39.37,74.02-20.03,28.75-42.77,55.21-67.61,79.9-1,1-2.08,1.95-3.13,2.93h-3.74Z"/>
</svg>