<?xml version="1.0" encoding="UTF-8"?>
<svg id="Layer_1" data-name="Layer 1" xmlns="http://www.w3.org/2000/svg" viewBox="0 0 392.17 384">
  <defs>
    <style>
      .cls-1 {
        fill: #131331;
        stroke-width: 0px;
      }
    </style>
  </defs>
  <path class="cls-1" d="M74.24,270.8v-117.64c.36.15.73.26,1.04.48,32.68,23.07,65.36,46.16,98.03,69.24,14.65,10.36,29.16,10.37,43.84.02,29.21-20.61,58.4-41.24,87.61-61.85,3.79-2.67,7.64-5.26,11.45-7.88v117.64c-.09.14-.24.26-.27.41-3.2,13.57-10.99,20.03-24.2,20.03h-97.57c-32.13,0-64.26-.02-96.39,0-6.41.02-12.05-2-16.77-6.72-3.74-3.76-5.61-8.55-6.77-13.72"/>
  <path class="cls-1" d="M74.24,126.13v-6.51c.39-1.42.73-2.87,1.18-4.27,3.21-10.13,11.64-16.15,22.59-16.15,64.81-.02,129.62,0,194.43,0,.72,0,1.42,0,2.14.03,9.6.55,17.48,6.73,20.46,16.12.44,1.42.79,2.85,1.18,4.27v6.51c-1.52,6.63-4.6,12.07-10.1,15.93-32.64,22.99-65.22,46.06-97.85,69.05-8.73,6.14-17.55,6.02-26.27-.14-32.56-22.97-65.08-45.96-97.64-68.93-5.16-3.64-8.55-8.53-9.72-15.02-.07-.31-.26-.6-.39-.89"/>
</svg>