<?xml version="1.0" encoding="UTF-8"?>
<svg id="Layer_1" data-name="Layer 1" xmlns="http://www.w3.org/2000/svg" viewBox="0 0 309.45 297.19">
  <defs>
    <style>
      .cls-1 {
        fill: #215e9e;
        stroke-width: 0px;
      }
    </style>
  </defs>
  <path class="cls-1" d="M89.58,179.22v-58.86c.19.08.4.13.57.25,17.59,11.54,35.19,23.09,52.78,34.64,7.88,5.17,15.7,5.18,23.61,0,15.73-10.31,31.45-20.64,47.18-30.94,2.04-1.34,4.1-2.63,6.16-3.94v58.86c-.05.07-.12.13-.14.21-1.73,6.79-5.92,10.02-13.04,10.02h-52.53c-17.29,0-34.59,0-51.89,0-3.46,0-6.49-1-9.03-3.37-2.02-1.88-3.02-4.27-3.65-6.86"/>
  <path class="cls-1" d="M89.58,106.83v-3.26c.21-.71.39-1.44.64-2.14,1.73-5.07,6.26-8.07,12.17-8.07,34.9,0,69.78,0,104.68,0,.38,0,.76,0,1.15.02,5.17.27,9.42,3.37,11.01,8.07.24.71.42,1.43.64,2.13v3.26c-.81,3.32-2.47,6.04-5.44,7.97-17.58,11.5-35.12,23.04-52.68,34.54-4.69,3.08-9.45,3.01-14.15-.07-17.52-11.5-35.04-23-52.56-34.49-2.79-1.82-4.6-4.26-5.24-7.52-.04-.15-.14-.29-.21-.44"/>
</svg>