<?xml version="1.0" encoding="UTF-8"?>
<svg id="Layer_1" data-name="Layer 1" xmlns="http://www.w3.org/2000/svg" viewBox="0 0 1080 1080">
  <defs>
    <style>
      .cls-1 {
        stroke-width: 0px;
                fill:white

      }
    </style>
  </defs>
  <path class="cls-1" d="m803.81,556.24c0,41.69,1.29,84.2-.82,126.54-.6,12.1-8.58,30.8-17.53,33.9-13.58,4.71-32.61,2.18-46.45-3.86-43.43-18.98-84.98-42.26-128.3-61.51-34.45-15.31-70.97-25.96-105.36-41.4-8.68-3.9-17.77-18.08-18.02-27.77-1.62-61.81-2.21-123.73.32-185.48.51-12.59,13.07-30.98,24.59-35.73,52.28-21.58,106.57-38.25,159.32-58.79,21.89-8.52,40.93-24.37,62.81-32.91,15-5.86,35.23-10.77,48.37-5.1,10.68,4.61,17.62,24.97,20.24,39.43,3.39,18.71.88,38.51.82,57.83-.09,29.85-2.39,54.7,33.44,75,46.92,26.59,26.1,96.85-33.44,119.85Z"/>
  <path class="cls-1" d="m455.22,388.18c0,58.76,0,112.68,0,166.59,0,10.07,0,20.15,0,34.38-38.67,0-74.55,2.45-109.92-.79-27.3-2.5-47-16.78-45.15-50.27,1.92-34.69.05-69.58.56-104.37.43-29.18,15.9-44.93,45.14-45.4,34.65-.56,69.31-.13,109.37-.13Z"/>
  <path class="cls-1" d="m468.28,622.86c5.87,30.72,13.79,61.07,16.42,91.87.95,11.16-7.72,28.61-17.27,34.2-32.45,18.98-78.35-1.25-86.37-37.61-6.2-28.1-7.61-57.25-11.46-88.45h98.68Z"/>
</svg>