<?xml version="1.0" encoding="UTF-8"?>
<svg id="Layer_1" data-name="Layer 1" xmlns="http://www.w3.org/2000/svg" viewBox="0 0 1080 1080">
  <defs>
    <style>
      .cls-1 {
        stroke-width: 0px;        fill:white

      }
    </style>
  </defs>
  <path class="cls-1" d="m515.72,725.22v46.2c-64.42,0-128.36,0-192.29,0-15.48,0-30.98.43-46.44-.09-39.6-1.35-69.8-30.77-69.93-70.53-.5-154.8-.55-309.6.05-464.4.15-37.89,30.14-68.5,67.71-68.63,176.73-.62,353.47-.6,530.2,0,35.69.12,66.89,29.97,67.36,64.98,1.13,84.94.37,169.91.37,257.3h-45.08v-118.49H253.05c0,52.76,0,106.4,0,160.03,0,42.57-.48,85.15.13,127.71.72,49.98,16.13,65.36,66.51,65.8,64.24.56,128.49.14,196.03.14ZM255.36,320.1h568.29c10.21-92.33-7.41-108.06-90.27-106.91-128.74,1.79-257.54,1.7-386.29.04-84.21-1.09-100.2,13.69-91.74,106.87Z"/>
  <path class="cls-1" d="m586.91,833.39c-48.35.05-48.68-.73-40.09-45.22,2.17-11.25,2.22-23.1,1.89-34.63-1.5-51.56,31.34-82.83,65.22-114.42,30.19-28.15,58.61-58.18,87.81-87.39,70.75-70.76,78.96-70.77,150.08,1.67,7.84,7.99,18.58,17.17,19.81,26.84,3.56,27.92,3.44,55.44-20.61,77.97-37.66,35.26-76.98,69.78-108.81,109.97-42.21,53.29-99.43,60.04-155.3,65.21Zm118.1-209.26c-36.88,49.62-106.49,75.8-101.27,153.08,75.7-1.23,99.69-68.32,149.96-106.14-18.08-17.43-32.62-31.44-48.69-46.93Zm67.28-65.84c-6.72,7.07-14.48,15.25-19.87,20.93,13.9,16.3,26.98,31.64,43.62,51.14,10.13-10.66,17.55-18.46,27.94-29.39-18.72-15.46-34.26-28.28-51.7-42.68Z"/>
</svg>