<?xml version="1.0" encoding="UTF-8"?>
<svg id="Layer_1" data-name="Layer 1" xmlns="http://www.w3.org/2000/svg" viewBox="0 0 303.32 309.45">
  <defs>
    <style>
      .cls-1 {
        fill: #c69c63;
        stroke-width: 0px;
      }
    </style>
  </defs>
  <path class="cls-1" d="M148.76,117.56c-2.53,2.36-4.78,4.83-7.4,6.83-21.35,16.27-52.51,3.53-56.45-23-2.38-16.03,6.12-31.25,21.03-37.84.87-.39,1.75-1.36,2.07-2.26,6.67-18.88,24.08-30.42,44.03-29.1,16.4,1.09,31.4,12.72,36.92,28.72.47,1.35,1.07,2.19,2.45,2.79,14.15,6.22,22.85,21.09,21.13,35.96-1.82,15.75-13.21,28.43-28.7,31.28-13.57,2.5-24.95-1.87-34.04-12.19-.38-.43-.75-.86-1.05-1.19"/>
  <path class="cls-1" d="M120.28,230.84c6.21-6.45,10.42-13.73,12.47-22.17.7-2.86,1.25-5.8,1.41-8.73,1.04-18.96-.58-37.51-9.06-54.91-1-2.05-2.02-4.1-3.03-6.16,4.71-1.01,9.41-2.02,14.41-3.08,3.86,7.69,7.86,15.65,12.1,24.09,4.2-8.35,8.22-16.34,12.12-24.11,4.87,1.06,9.54,2.07,14.34,3.12-.17.37-.39.96-.68,1.51-7.74,14.5-11.51,29.98-11.54,46.38-.01,7.16-.38,14.36,1.4,21.4,2.16,8.56,6.27,16.06,12.69,22.65h-56.62Z"/>
  <path class="cls-1" d="M98.75,216.93h-28.49c0,2.23.01,4.41,0,6.6-.03,4.45-3.02,7.57-7.23,7.52-4.04-.04-6.97-3.19-6.99-7.54-.01-2.14,0-4.28,0-6.38-4.97-1.25-7.24-3.74-7.12-7.73.11-3.6,3.05-6.71,6.66-6.73,19.26-.05,38.52-.04,57.78,0,3.22,0,6.14,2.66,6.67,5.78.56,3.32-1.26,6.66-4.38,7.89-.8.32-1.68.47-2.68.74,0,2.24.03,4.52,0,6.81-.05,4.13-3.11,7.17-7.14,7.16-4-.01-7.02-3.1-7.07-7.24-.02-2.21,0-4.42,0-6.88"/>
  <path class="cls-1" d="M241.11,217.07c0,2.29.03,4.58,0,6.86-.06,4.11-3.14,7.14-7.19,7.11-3.9-.03-6.96-3.08-7.02-7.06-.03-2.28,0-4.56,0-6.99h-28.49v3.25c0,7.55-2.11,10.78-7.05,10.8-5.05.03-7.17-3.2-7.17-10.91v-3.05c-5.64-1.27-8.33-5.21-6.74-9.67,1.03-2.89,3.49-4.75,6.55-4.75,19.11-.02,38.22-.03,57.34,0,3.36,0,6.34,2.63,6.85,5.84.54,3.34-1.3,6.64-4.43,7.86-.8.31-1.67.46-2.64.72"/>
  <path class="cls-1" d="M112.94,195.42h-56.84c0-5.19-.18-10.27.06-15.34.15-3.15,3.33-5.81,6.56-5.82,14.52-.05,29.03-.05,43.54,0,3.31.01,6.49,2.79,6.62,6.02.2,5,.05,10.01.05,15.14"/>
  <path class="cls-1" d="M184.2,195.37c0-5.08-.12-10.03.04-14.96.11-3.25,3.2-6.13,6.5-6.14,14.59-.06,29.18-.06,43.76,0,3.38.02,6.46,3,6.55,6.35.13,4.86.03,9.74.03,14.76h-56.89Z"/>
</svg>