<?xml version="1.0" encoding="UTF-8"?>
<svg id="Layer_1" data-name="Layer 1" xmlns="http://www.w3.org/2000/svg" viewBox="0 0 309.45 297.19">
  <defs>
    <style>
      .cls-1 {
        fill: #c69c63;
        stroke-width: 0px;
      }
    </style>
  </defs>
  <path class="cls-1" d="M187.72,102.29c1.68,3.64,4.24,6.19,7.86,7.85v-7.85h-7.86ZM160.35,102.31h-7.83v7.82c3.62-1.68,6.18-4.22,7.83-7.82M195.57,194.99v-8.04c-3.64,1.77-6.2,4.37-7.84,8.04h7.84ZM160.39,194.99c-1.73-3.68-4.26-6.33-7.88-8.02v8.02h7.88ZM167.83,155.38c3.93,3.34,9.37,3.18,12.76-.26,3.45-3.5,3.55-8.85.23-12.72-2.88-3.36-8.36-3.94-12.1-1.23,2.95,1.54,4.88,4.02,6.53,6.85-2.45,2.43-4.91,4.86-7.43,7.35M138.08,155.74c2.56-2.18,4.99-4.28,7.46-6.34.56-.46.76-.94.75-1.65-.03-4.48-.02-8.96-.02-13.44v-1.01c-1.22-.19-2.17,0-3.13.72-7.5,5.68-15.06,11.3-22.57,16.96-.7.53-1.37.8-2.25.74-.94-.06-1.89-.01-2.83-.01v24.6c.21.01.34.04.47.04,7.17,0,14.33,0,21.49-.03.43,0,.96-.31,1.28-.64,9.22-9.17,18.43-18.36,27.64-27.55.2-.2.39-.43.58-.64-2.83-2.32-6.62-2.34-9.59.02-2.28,1.81-4.45,3.75-6.67,5.64-2.84,2.41-5.67,4.83-8.59,7.31-1.36-1.58-2.66-3.1-4.03-4.7M152.44,143.49c2.45-2.1,5.02-3.47,8.04-3.77.83-.09,1.34-.47,1.85-1.07,2.69-3.18,6.16-5,10.28-5.35,10.09-.87,18.11,7.69,16.65,17.67-1.36,9.31-11,15.26-19.95,12.33-2.21-.73-4.14-1.91-5.91-3.47-3.6,3.59-7.13,7.12-10.65,10.67-.2.21-.29.61-.3.92-.02,2.7,0,5.4-.02,8.11,0,.56.15.86.71,1.04.81.27,1.62.57,2.37.95,5.43,2.72,9.18,6.92,11.16,12.66.23.65.55.87,1.25.86,4.08-.04,8.16-.04,12.24,0,.7,0,1.02-.2,1.26-.85,2.36-6.61,6.81-11.18,13.44-13.57.63-.22.81-.54.81-1.18-.02-20.59-.02-41.18,0-61.78,0-.63-.14-.97-.79-1.2-6.61-2.33-11.1-6.81-13.45-13.4-.24-.68-.6-.84-1.27-.83-4.08.03-8.16.04-12.23,0-.72,0-1.01.24-1.25.88-2.35,6.55-6.82,11-13.38,13.34-.66.23-.86.56-.85,1.26.03,4.48.01,8.96.01,13.44v12.37ZM201.81,96.08v105.03h-55.49v-24.23c-1.76,1.76-3.31,3.27-4.82,4.84-.54.56-1.09.79-1.88.78-9.7-.02-19.4-.01-29.1-.01h-1.19v-36.94c2.37,0,4.73.04,7.08-.03.63-.02,1.35-.24,1.85-.62,7.56-5.61,15.1-11.24,22.62-16.91.87-.65,1.71-1.03,2.8-.93.81.08,1.64.02,2.6.02v-31h55.53Z"/>
  <rect class="cls-1" x="171.02" y="114.64" width="6.04" height="12.38"/>
  <rect class="cls-1" x="171.01" y="170.24" width="6.04" height="12.18"/>
</svg>