<?xml version="1.0" encoding="UTF-8"?>
<svg id="Layer_1" data-name="Layer 1" xmlns="http://www.w3.org/2000/svg" viewBox="0 0 1080 1080">
  <defs>
    <style>
      .cls-1 {
        stroke-width: 0px;
                fill:white

      }
    </style>
  </defs>
  <path class="cls-1" d="m966.25,762.46h-167.96c5.41,29.32,10.15,54.98,15.37,83.27H192.46c-4.3-59.62,21.66-101.46,69.92-128.87,32.31-18.35,67.76-31.14,101.57-46.91,49.69-23.17,61.02-58.49,34.71-106.06-14.18-25.64-28.72-51.1-41.75-77.32-5.05-10.16-8.69-22.12-8.98-33.36-1.15-43.23-2.11-86.55-.54-129.74,4.08-112.01,128.61-176.93,223.5-116.59,22.88,14.55,41.82,21.37,70.05,7.78,52.9-25.48,132.93-7.31,171.14,35.79,11.24,12.68,19.28,31.23,21.58,48.08,3.27,23.92-2.66,49.02-.17,73.15,6.35,61.59-21.31,111.68-47.39,163.9-13.56,27.15-6.49,56.18,26.45,70.55,15.34,6.69,30.82,13.12,46.46,19.09,48.84,18.65,88.91,46.69,107.24,98.48v38.75Zm-40.85-30.63l7.47-11.95c-18.8-16.94-35.7-36.97-56.89-50.03-24.97-15.38-54.29-23.49-80.6-36.94-49.54-25.32-61.32-74.3-33.03-123.11,14.95-25.8,31.11-52.37,38.37-80.73,6.78-26.43-.26-56.1,3.69-83.64,7.45-51.91-15.26-81.03-61.62-100.26-36.42-15.11-68.61-12.98-99.03,4.06,4.87,26.4,13.95,49.27,12.26,71.3-5.83,75.86,8.46,155.85-40.97,223.92-6.01,8.28-14.19,17.98-14.21,27.03-.04,26.46-6.23,67.71,7.45,76.75,50.84,33.6,106.37,65.05,164.61,80.95,47.53,12.98,101.43,2.64,152.5,2.64Z"/>
</svg>