<?xml version="1.0" encoding="UTF-8"?>
<svg id="Layer_1" data-name="Layer 1" xmlns="http://www.w3.org/2000/svg" viewBox="0 0 1080 1080">
  <defs>
    <style>
      .cls-1 {
        stroke-width: 0px;
                fill:white

      }
    </style>
  </defs>
  <path class="cls-1" d="m697.5,520.29c0,56.23.3,112.46-.1,168.68-.29,41.61-14.45,55.54-56.61,55.75-67.47.34-134.95.37-202.42-.01-41.62-.24-55.53-14.38-55.63-56.65-.27-112.45-.3-224.91.02-337.37.12-41.71,14.28-55.5,56.54-55.7,67.47-.33,134.95-.36,202.42.02,41.65.23,55.44,14.35,55.7,56.6.34,56.23.08,112.46.08,168.68Zm-71.58,111.26c3.1-3.56,6.19-7.12,9.29-10.69-14.42-14.36-26.52-33.3-43.79-42.03-28.69-14.51-36.91-27.49-17.87-57.16,11.33-17.67,15.97-41.14,18.44-62.59,3.07-26.66-27.81-52.21-57.32-51.29-27.73.87-50.64,23.62-47.05,51.63,2.75,21.45,7.62,44.83,19.06,62.47,19.35,29.84,11.5,45.36-18.53,56.31-24.5,8.93-38.52,24.64-35.47,53.35h173.24Z"/>
  <path class="cls-1" d="m741.1,342.19c10.55-1.16,15.31-2.01,20.09-2.15,88.97-2.71,93.89,1.99,93.89,89.52,0,67.4.04,134.79-.01,202.19-.05,57.62-10.25,67.96-66.86,68.05-13.56.02-27.12,0-43,0v-67.03h63c1.61-31.65-13.87-47.16-38.38-55.97-29.64-10.67-34.32-26.66-16.45-53.83,27.84-42.32,22.09-59.23-4.93-104.75-11.22-18.91-5.24-48.03-7.35-76.02Z"/>
  <path class="cls-1" d="m272.45,631.71h62.04v68c-21.24,0-43.28.86-65.23-.22-28.12-1.38-43.78-17.3-43.93-45.41-.5-89.81-.62-179.62.09-269.43.22-28.13,16.66-43.45,44.78-44.52,20.95-.8,41.95-.16,65.77-.16-.81,33.27,7.62,60.99-18.19,91.41-13.15,15.51-5.86,57.32,4.62,81.97,19.63,46.18,22.42,42.96-18.77,67.44-15.67,9.31-25.77,28.02-38.41,42.44,2.41,2.82,4.83,5.65,7.24,8.47Z"/>
</svg>