<?xml version="1.0" encoding="UTF-8"?>
<svg id="Layer_1" data-name="Layer 1" xmlns="http://www.w3.org/2000/svg" viewBox="0 0 1080 1080">
  <defs>
    <style>
      .cls-1 {
        stroke-width: 0px;
      }
    </style>
  </defs>
  <path class="cls-1" d="m895.96,738.84h-92.3c-2.93-80.46-48.82-127.8-116.24-160-18.15-8.67-40.51-24.98-21.07-47.66,39.45-46.01,27.17-99.56,28.98-151.41.35-10.07.05-20.16.05-30.02,57.14-14.36,111.71,22.89,113.4,80.74,1.28,43.8,1.94,89.58-29.1,126.33-25.74,30.46-11.72,50.09,17.34,62.97,40.58,17.99,76.98,39.89,98.95,80.27v38.77Z"/>
  <path class="cls-1" d="m755.17,737.09h-415.83c-1.76-46.02,19.35-77.43,55.96-99.22,24.29-14.46,50.62-25.51,74.76-40.2,28.59-17.39,33.67-41.51,12.22-67.52-39.85-48.3-46.49-103.76-34.95-161.39,12.96-64.75,88.81-93.56,142.74-57.19,77.2,52.06,86.58,125.66,27.04,211.99-27.37,39.68-22.66,59.03,20.26,82.03,22.67,12.15,46.61,22.29,68.06,36.26,33.15,21.6,52.19,52.11,49.74,95.23Z"/>
  <path class="cls-1" d="m288.34,736.92h-88.37c-2.5-40.24,13.86-68.94,45.35-89.47,10.73-6.99,22.6-12.27,34.12-18,55.16-27.43,59.23-32.83,27.36-84.22-23.48-37.86-21.88-77.84-20.58-117.28,1.82-55.35,55.11-90.78,113.57-78.8,0,26.2,1.46,53.08-.36,79.74-2.45,36,1.91,68.73,26.7,97.48,18.97,22,4.22,37.91-14.42,50.1-17.21,11.26-36.33,19.7-53.06,31.56-40.72,28.87-53.16,52.81-70.32,128.87Z"/>
</svg>