<?xml version="1.0" encoding="UTF-8"?>
<svg id="Layer_1" data-name="Layer 1" xmlns="http://www.w3.org/2000/svg" viewBox="0 0 412.6 384">
  <defs>
    <style>
      .cls-1 {
        fill: #131331;
        stroke-width: 0px;
      }
    </style>
  </defs>
  <path class="cls-1" d="M279.94,302.49c-12.17-1.07-22.7-3.79-32.99-7.47-24.53-8.79-46.3-22.17-66.43-38.18-28.08-22.34-51.53-48.52-69.29-79.35-9.2-16.01-16.13-32.87-19.39-51.05-.98-5.53-.53-10.46,2.63-15.31,11.56-17.84,24.89-34.23,41.6-47.84,1.07-.87,2.28-1.6,3.41-2.38,6.55-4.52,11.78-3.74,18.68,1.22,1.24.9,2.33,2.07,3.23,3.31,10.76,14.75,21.1,29.78,29.25,46.1,1.78,3.57,3.14,7.35,4.43,11.12,1.58,4.65.63,9.1-2.78,12.58-4.06,4.18-8.54,8-13,11.8-5.76,4.89-5.89,4.84-2.84,11.8,13.07,29.66,35.11,50.36,66.08,62.14,2.7,1.04,4.41.97,6.38-1.46,3.65-4.55,7.67-8.81,11.7-13.06,5.23-5.55,11.7-7.27,18.78-4.09,8.93,4.01,17.86,8.13,26.32,12.99,9.98,5.76,19.49,12.29,29.12,18.59,4.07,2.67,6.54,6.49,7.72,11.15.65,2.55.46,4.94-.88,7.11-1.75,2.84-3.48,5.74-5.7,8.2-14.38,15.87-31.04,29.08-49.86,39.68-2.21,1.24-4.77,1.88-6.15,2.41"/>
</svg>