<?xml version="1.0" encoding="UTF-8"?>
<svg id="Layer_1" data-name="Layer 1" xmlns="http://www.w3.org/2000/svg" viewBox="0 0 309.45 297.19">
  <defs>
    <style>
      .cls-1 {
        fill: #00aeef;
        stroke-width: 0px;
      }
    </style>
  </defs>
  <path class="cls-1" d="M195.28,194.35c-5.62-.49-10.48-1.75-15.23-3.45-11.33-4.06-21.38-10.24-30.68-17.63-12.97-10.32-23.79-22.4-31.99-36.64-4.25-7.39-7.45-15.18-8.95-23.57-.45-2.56-.24-4.83,1.22-7.07,5.34-8.24,11.49-15.8,19.21-22.09.49-.4,1.05-.74,1.58-1.1,3.03-2.09,5.44-1.72,8.62.56.57.42,1.07.96,1.49,1.53,4.97,6.81,9.74,13.75,13.51,21.28.82,1.65,1.45,3.39,2.05,5.13.73,2.15.29,4.2-1.29,5.81-1.87,1.93-3.94,3.69-6,5.45-2.66,2.26-2.72,2.23-1.31,5.45,6.04,13.7,16.21,23.25,30.51,28.69,1.25.48,2.04.45,2.95-.67,1.69-2.1,3.54-4.07,5.4-6.03,2.41-2.56,5.4-3.36,8.67-1.89,4.12,1.85,8.25,3.76,12.15,6,4.61,2.66,9,5.68,13.44,8.58,1.88,1.23,3.02,2.99,3.57,5.15.3,1.18.21,2.28-.41,3.28-.81,1.31-1.61,2.65-2.63,3.79-6.64,7.33-14.33,13.43-23.02,18.32-1.02.57-2.2.87-2.84,1.11"/>
</svg>