<?xml version="1.0" encoding="UTF-8"?>
<svg id="Layer_1" data-name="Layer 1" xmlns="http://www.w3.org/2000/svg" viewBox="0 0 309.45 310.95">
  <defs>
    <style>
      .cls-1 {
        fill: #c69c63;
        stroke-width: 0px;
      }
    </style>
  </defs>
  <path class="cls-1" d="M177.08,44.4c-2.71,2.3-5.5,4.51-8.12,6.91-12.97,11.86-25.9,23.77-38.84,35.67-3.44,3.16-2.99,7.84.93,9.35.71.28,1.54.35,2.31.35,30.04.01,60.09.01,90.13.01,2.66,0,4.4-1.12,5.23-3.28.88-2.29.3-4.34-1.85-6.31-11.01-10.13-22.03-20.24-33.06-30.36-3.6-3.31-7.19-6.64-10.82-9.91-.99-.89-2.13-1.62-3.21-2.42h-2.7Z"/>
  <path class="cls-1" d="M56.15,213.39c.78,1.51,1.38,3.15,2.37,4.49,1.82,2.48,4.41,3.77,7.44,3.79,8,.06,15.99.11,23.98-.02,8.21-.13,15.7-6.01,18.25-14.02,4.29-13.51,8.59-27.02,12.89-40.53,1.02-3.2,2.81-5.73,5.89-7.18.33-.16.75-.62.76-.95.04-6.74.03-13.48.03-20.41-11.93,2.78-20.29,9.43-23.97,21.5-3.36,11.03-6.61,22.11-9.92,33.16-1.45,4.85-5.04,7.64-10.01,7.69-5.52.06-11.03.01-16.55.02-5.76,0-8.91,2.3-10.86,7.91-.05.15-.2.26-.3.39v4.15Z"/>
  <path class="cls-1" d="M148.1,169.87h9.94v10.19h-9.94v-10.19ZM198.77,169.85h9.96v10.18h-9.96v-10.18ZM168.37,190.62h20.09v10.18h-20.09v-10.18ZM168.37,169.87h20.07v10.19h-20.07v-10.19ZM178.5,159.02c-11.03.06-20.2-9.24-20.34-20.61-.13-11.34,9.07-20.87,20.19-20.93,11.02-.06,20.21,9.25,20.34,20.62.13,11.34-9.07,20.87-20.19,20.93M218.97,211.32v-104.09h-81.01v104.09c-1.79,0-3.4-.02-5.01,0-3.02.04-5.18,2.23-5.18,5.18s2.16,5.15,5.18,5.18c3.27.03,6.53.02,9.79,0,3.19-.02,5.27-2.15,5.27-5.43.02-8.48,0-16.96,0-25.59h10.15v1.77c0,7.91,0,15.81,0,23.71,0,3.26,2.07,5.51,5,5.54,3.01.02,5.09-2.25,5.11-5.61.01-1.5,0-3,0-4.64h20.28c0,1.48,0,3.01,0,4.54.02,3.41,2.01,5.68,5.01,5.7,3.07.02,5.1-2.27,5.11-5.78,0-8.36,0-16.73,0-25.24h10.15v1.78c0,7.79,0,15.58,0,23.37,0,3.86,1.94,5.87,5.68,5.88,3.1,0,6.19.02,9.29,0,3.11-.02,5.31-2.23,5.27-5.26-.03-2.94-2.21-5.07-5.25-5.11-1.56-.02-3.13,0-4.87,0"/>
</svg>