<?xml version="1.0" encoding="UTF-8"?>
<svg id="Layer_1" data-name="Layer 1" xmlns="http://www.w3.org/2000/svg" viewBox="0 0 309.45 271.11">
  <defs>
    <style>
      .cls-1 {
        fill: #c69c63;
        stroke-width: 0px;
      }
    </style>
  </defs>
  <path class="cls-1" d="M219.03,219.66H70.11v-1.69c0-14.48,0-28.95,0-43.42,0-3.85,2.17-5.94,6.21-5.69,5.38.33,9.72,2.66,12.97,6.77,3.52,4.44,8.27,4.43,11.8-.06,7.05-8.97,20.63-8.96,27.67,0,3.56,4.54,8.34,4.49,11.89-.11,6.98-9.06,21.16-8.85,27.79.41,2.98,4.16,8.48,4.15,11.47-.03,6.58-9.18,20.72-9.46,27.69-.48,1.75,2.25,3.87,3.49,6.79,3.67,2.47.16,4.61,2.3,4.62,4.66.04,11.92.02,23.85.02,35.96"/>
  <path class="cls-1" d="M165.78,123.1h-37.04v20.18h37.04v-20.18ZM128.61,112.75h37.24v-1.69c0-6.31-.03-12.62.01-18.93.06-8.42,7.36-15.05,16.4-14.95,8.47.09,15.57,7.05,15.48,15.2-.03,2.88-2.25,5.1-5.16,5.15-2.97.05-5.26-1.99-5.46-4.86-.23-3.18-2.48-5.38-5.42-5.31-3.06.07-5.22,2.38-5.22,5.65,0,23.12-.04,46.23.05,69.35,0,2-.6,3.31-2.18,4.14-2.7-1.76-5.36-3.45-7.95-5.22-.34-.23-.52-.87-.53-1.32-.05-2.06-.02-4.12-.02-6.3h-37.22v8.15c-3.54-1.13-6.97-2.22-10.65-3.39v-1.38c0-21.37,0-42.74,0-64.1,0-9.33,7.18-16,16.91-15.74,8.32.23,15.48,7.72,14.98,15.66-.16,2.55-2.45,4.63-5.15,4.68-2.73.05-5.14-1.88-5.44-4.38-.05-.37-.01-.74-.06-1.11-.35-2.71-2.69-4.74-5.39-4.68-2.82.06-5.16,2.19-5.2,5.01-.08,6.73-.03,13.46-.03,20.38"/>
</svg>