<?xml version="1.0" encoding="utf-8"?>
<!-- Generator: Adobe Illustrator 28.2.0, SVG Export Plug-In . SVG Version: 6.00 Build 0)  -->
<svg version="1.1" id="Layer_1" xmlns="http://www.w3.org/2000/svg" xmlns:xlink="http://www.w3.org/1999/xlink" x="0px" y="0px"
	 viewBox="0 0 792 612" style="enable-background:new 0 0 792 612;" xml:space="preserve">
<style type="text/css">
	.st0{clip-path:url(#SVGID_00000018202793740674612140000017075348116331058066_);fill:#C69C63;}
</style>
<g>
	<defs>
		<rect id="SVGID_1_" width="792" height="612"/>
	</defs>
	<clipPath id="SVGID_00000168113745232463472180000008933304307431197584_">
		<use xlink:href="#SVGID_1_"  style="overflow:visible;"/>
	</clipPath>
	<path style="clip-path:url(#SVGID_00000168113745232463472180000008933304307431197584_);fill:#C69C63;" d="M486.47,171.02
		c-37-0.68-70.76-3.56-103.39-14.62c-11.46-3.93-22.61-8.57-32-16.61c-10.38-8.94-10.51-16.97-0.09-25.99
		c12.46-10.7,27.53-15.98,42.92-20.17c36.33-9.93,73.33-12.41,110.79-10.51c27.26,1.4,54.2,4.83,80.06,14.03
		c9.75,3.47,18.82,8.8,28.11,13.58c2.35,1.26,4.33,3.39,6.27,5.37c7.04,7.4,6.99,14.12-0.18,21.44c-8.66,8.8-19.63,13.54-30.87,17.6
		c-24.78,9.03-50.5,13.04-76.63,14.67C502.17,170.39,492.83,170.71,486.47,171.02"/>
	<path style="clip-path:url(#SVGID_00000168113745232463472180000008933304307431197584_);fill:#C69C63;" d="M259.19,375.4
		c-36.1,0.23-71.93-2.8-106.05-15.93c-9.25-3.56-18.32-8.57-26.4-14.44c-11.28-8.3-10.92-17.6-0.09-26.62
		c11.69-9.75,25.68-14.94,39.94-18.95c40.93-11.64,82.76-13.49,124.91-10.61c26.9,1.85,53.21,7,78.3,17.24
		c8.03,3.29,15.7,8.03,22.56,13.45c9.79,7.67,9.66,15.88,0.5,24.37c-9.66,8.98-21.57,13.81-33.76,17.87
		c-25.68,8.66-52.17,12.41-79.11,13.58C273.09,375.67,266.14,375.4,259.19,375.4"/>
	<path style="clip-path:url(#SVGID_00000168113745232463472180000008933304307431197584_);fill:#C69C63;" d="M624.02,157.58
		c0,13.54,0.9,26.85-0.5,39.89c-0.5,4.74-5.69,10.15-10.15,13c-8.57,5.5-17.83,10.33-27.35,13.81
		c-24.19,8.89-49.46,13.27-75.09,13.9c-23.15,0.54-46.44,0.54-69.5-1.26c-28.29-2.26-56.05-8.12-81.32-22.38
		c-3.66-2.03-7.04-4.69-10.24-7.45c-4.74-4.06-7.04-9.21-6.86-15.75c0.32-11.01,0.09-22.07,0.09-33.48
		c0.95,0.18,1.71,0.09,2.21,0.45c23.56,15.48,50.18,21.8,77.3,26.17c35.61,5.82,71.35,6.27,107.13,2.17
		c27.8-3.2,55.19-8.57,80.64-21.3C614.95,163.09,619.23,160.33,624.02,157.58"/>
	<path style="clip-path:url(#SVGID_00000168113745232463472180000008933304307431197584_);fill:#C69C63;" d="M399.73,362.43
		c0,13.18,0.23,25.5-0.09,37.86c-0.18,6.5-4.42,11.37-9.52,14.3c-10.15,5.78-20.49,11.6-31.36,15.61
		c-22.65,8.35-46.44,11.73-70.35,13.22c-38.27,2.39-76.45,1.35-113.77-8.75c-13.63-3.7-26.67-9.79-39.76-15.43
		c-4.2-1.8-8.03-5.23-11.28-8.66c-2.3-2.39-4.65-5.96-4.78-9.12c-0.5-12.64-0.18-25.32-0.18-38.22c0.77,0.05,1.4-0.09,1.76,0.14
		c24.32,16.2,51.9,22.38,80.01,26.67c28.48,4.38,57.13,5.6,85.88,3.38c33.8-2.57,67.15-7.49,98.29-22.47
		C389.44,368.56,394.09,365.63,399.73,362.43"/>
	<path style="clip-path:url(#SVGID_00000168113745232463472180000008933304307431197584_);fill:#C69C63;" d="M118.34,430.74
		c33.3,20.8,69.27,27.08,106.05,30.37c42.37,3.79,84.34,1.17,125.72-9.25c17.24-4.38,33.76-10.61,49.28-21.21
		c0,13.36,0.59,26.04-0.36,38.54c-0.32,3.93-4.29,8.26-7.58,11.1c-11.96,10.38-26.58,15.52-41.38,19.63
		c-37.95,10.6-76.67,12.91-115.75,10.6c-25.99-1.53-51.72-4.96-76.31-13.9c-9.88-3.61-19.36-8.67-28.52-13.99
		c-7.94-4.6-11.96-11.91-11.28-21.98C118.84,451.05,118.34,441.3,118.34,430.74"/>
	<path style="clip-path:url(#SVGID_00000168113745232463472180000008933304307431197584_);fill:#C69C63;" d="M343.1,227.09
		c12.64,5.42,24.55,11.46,37.09,15.75c29.11,10.02,59.43,13.63,89.98,14.58c39.8,1.17,79.29-1.99,117.47-14.58
		c12.41-4.11,24.14-10.2,36.55-15.57c0.05,0.5,0.32,2.03,0.32,3.52c0.05,8.8-0.32,17.6,0.14,26.4c0.41,8.39-3.16,14.35-9.39,19.13
		c-12.82,9.79-27.57,15.16-42.83,19.23c-40.75,10.83-82.22,12.73-124.01,9.21c-28.3-2.44-56-7.94-82.04-20.13
		c-3.02-1.4-5.87-3.07-8.71-4.78c-9.97-6.05-16.25-13.85-14.76-26.89C343.91,244.29,343.1,235.44,343.1,227.09"/>
	<path style="clip-path:url(#SVGID_00000168113745232463472180000008933304307431197584_);fill:#C69C63;" d="M118.34,497.34
		c18.41,12.41,37.95,18.86,58.17,23.42c36.1,8.17,72.65,10.24,109.52,7.85c28.52-1.85,56.68-5.96,83.67-16.11
		c10.15-3.84,19.77-9.12,29.92-13.81c0,9.02,0.5,18.32-0.18,27.57c-0.5,7.04-5.78,11.96-11.42,14.89
		c-11.33,5.96-22.79,12.14-34.88,15.89c-36.73,11.28-74.6,13.72-112.82,12c-25.23-1.17-50.36-3.79-74.46-11.82
		c-12.55-4.2-24.55-10.24-36.33-16.47c-8.17-4.33-12.14-11.91-11.28-21.93C118.8,512.01,118.34,505.15,118.34,497.34"/>
	<path style="clip-path:url(#SVGID_00000168113745232463472180000008933304307431197584_);fill:#C69C63;" d="M417.22,384.82
		c71.35,8.98,140.93,9.03,206.95-25.54c0.09,0.9,0.32,2.44,0.36,3.97c0,10.11-0.18,20.22,0.05,30.33c0.18,6.5-1.67,12.37-6.9,15.61
		c-9.75,6.09-19.63,12.37-30.19,16.61c-20.67,8.26-42.56,11.6-64.62,13.67c-26.13,2.53-52.21,2.57-78.3-0.14
		c-7.99-0.81-15.93-1.99-23.83-3.38c-1.35-0.23-3.34-2.35-3.38-3.61C417.13,416.63,417.22,400.93,417.22,384.82"/>
	<path style="clip-path:url(#SVGID_00000168113745232463472180000008933304307431197584_);fill:#C69C63;" d="M415.67,320.03
		c22.11,1.44,44.81,4.02,67.56,4.2c41.25,0.36,82-4.2,120.63-20.58c6.9-2.89,13.36-6.86,20.4-10.51c0.14,1.31,0.41,2.71,0.45,4.06
		c0.05,8.03-0.45,16.11,0.14,24.14c0.63,9.57-3.56,16.06-10.74,21.25c-12.27,8.85-26.13,14.03-40.43,17.96
		c-33.26,9.16-67.24,12.05-101.49,10.61c-16.92-0.68-33.8-3.2-50.72-4.65c-3.43-0.32-4.2-1.76-4.11-4.96
		c0.14-7.67,0.27-15.34-0.05-22.97C417.07,332.13,416.17,325.68,415.67,320.03"/>
	<path style="clip-path:url(#SVGID_00000168113745232463472180000008933304307431197584_);fill:#C69C63;" d="M417.25,454.64
		c71.35,9.03,140.84,8.94,207.27-25.68c0,4.74-0.59,10.06,0.14,15.25c2.08,15.25-5.51,24.19-17.69,30.87
		c-18.91,10.38-39.31,15.84-60.29,19.27c-41.61,6.77-83.31,6.81-124.96,0c-1.62-0.27-4.24-1.89-4.29-2.93
		C417.16,479.1,417.25,466.83,417.25,454.64"/>
</g>
</svg>
