<?xml version="1.0" encoding="UTF-8"?>
<svg id="Layer_1" data-name="Layer 1" xmlns="http://www.w3.org/2000/svg" viewBox="0 0 343.15 301.04">
  <defs>
    <style>
      .cls-1 {
        fill: #c69c63;
        stroke-width: 0px;
      }
    </style>
  </defs>
  <path class="cls-1" d="M152.62,52.45c-10.18.44-20.01,2.51-29.28,6.85-11.97,5.6-21.68,13.76-27.82,25.78-1.36,2.66-.8,5.04,1.31,6.12,2.16,1.09,4.22.08,5.78-2.45,1.8-2.94,3.55-6,5.81-8.56,10.12-11.43,23.21-17.06,38-19.11,2.78-.39,5.62-.33,8.42-.62,2.54-.25,3.95-1.89,3.87-4.19-.09-2.29-1.67-3.73-4.21-3.81-.63-.02-1.25,0-1.88,0M82.89,100.81c.52-7.28,2.54-13.95,5.92-20.15,9-16.53,23.18-26.56,40.6-32.35,8.39-2.79,17.04-4.05,25.86-4.02,12.3.04,24.64-.54,36.89.3,23.69,1.62,43.68,10.96,57.79,31.02,4.74,6.73,7.5,14.33,8.74,22.48.13.84.09,1.71.13,2.72H82.89Z"/>
  <path class="cls-1" d="M126.35,228.46c-7.5-7.57-14.88-14.99-22.18-22.48-.51-.52-.73-1.67-.61-2.45,1.58-9.89,5.76-18.8,10.64-27.38,6.08-10.69,8.95-22.11,8.55-34.42-.14-4.27-.08-8.54-.03-12.8.03-3.17,1.44-4.21,4.54-3.44,3.28.81,5.3,2.87,6.04,6.2,1.96,8.75,1.58,17.55.66,26.39-.37,3.49-.92,7.18-.23,10.54,2.5,12.12,16.82,17.52,26.34,9.75,9.5-7.74,18.53-16.08,27.56-24.38,1.89-1.73,3.04-4.34,4.34-6.66,2.9-5.21,5.45-10.64,8.57-15.71,2.9-4.7,7.06-7.53,12.99-6.5,1.21.21,2.49.03,4.17.03-.46.82-.73,1.41-1.09,1.94-6.31,9.32-10.44,19.54-12.4,30.65-.63,3.59-2.33,6.44-5.25,8.64-13.3,10-25.41,21.29-36.33,33.91-1.21,1.4-2.72,2.67-4.33,3.55-11.57,6.37-21.99,14.23-31.11,23.84-.22.23-.47.42-.86.78"/>
  <path class="cls-1" d="M83.4,254.88c-9.08,0-18.17,0-27.25,0-4.33,0-5.64-1.33-5.65-5.63,0-4.11.02-8.22,0-12.32,0-1.93.74-3.36,2.49-4.18,11.44-5.36,20.9-13.51,30.18-21.89,1.52-1.37,2.95-2.83,4.5-4.17,2.02-1.74,4.03-1.79,5.87.05,10.67,10.69,21.3,21.41,31.9,32.17,2,2.02,1.82,4.59-.36,6.41-3.44,2.87-6.89,5.74-10.5,8.37-1.1.8-2.75,1.13-4.16,1.14-9,.1-18.01.05-27.02.05"/>
  <path class="cls-1" d="M171.12,108.99h97.79c.78,0,1.57-.04,2.35.03,2.37.2,4,1.92,3.98,4.14-.02,2.18-1.49,3.73-3.85,3.98-.85.09-1.72.07-2.58.07-65.27,0-130.54,0-195.8,0-.94,0-1.89.02-2.81-.1-2.19-.28-3.63-1.86-3.67-3.93-.03-2,1.45-3.78,3.53-4.11.84-.13,1.72-.07,2.58-.07,32.83,0,65.66,0,98.49,0"/>
  <path class="cls-1" d="M195.23,125.15c-.6.93-1,1.47-1.33,2.05-2.85,5.07-5.9,10.04-8.43,15.27-1.54,3.19-3.18,6.09-5.97,8.32-2.2,1.75-4.23,3.71-6.71,5.89,1.94-11.54,3.75-22.57,12.84-30.47.65-.56,1.62-.96,2.47-1.02,2.23-.14,4.48-.05,7.13-.05"/>
  <path class="cls-1" d="M178.89,28.08c.01,4.5-3.57,8.18-7.97,8.2-4.37.02-8.03-3.68-8.04-8.15,0-4.5,3.56-8.17,7.98-8.19,4.41-.02,8.02,3.64,8.03,8.14"/>
</svg>