<?xml version="1.0" encoding="UTF-8"?>
<svg id="Layer_1" data-name="Layer 1" xmlns="http://www.w3.org/2000/svg" viewBox="0 0 1080 1080">
  <defs>
    <style>
      .cls-1 {
        stroke-width: 0px;
      }
    </style>
  </defs>
  <path class="cls-1" d="m738.59,141.45c10.33,0,20.67,0,31,0,46.59,48.01,92.69,96.5,140.02,143.77,18.13,18.11,20.65,32.79,1.61,52.03-25.16,25.43-47.38,53.77-72.43,79.33-156.99,160.19-314.74,319.64-471.34,480.21-23.28,23.86-39.85,24.73-63.44.44-50.18-51.68-102.79-101-154.4-151.29,0-10.33,0-20.67,0-31,13.26-11.94,28.07-22.6,39.45-36.13,18.71-22.25,34.33-22.36,52.87.08,9.43,11.41,22.47,19.83,33.88,29.61,2.73-3.02,5.46-6.04,8.19-9.06-10.15-10.61-19.35-22.4-30.66-31.57-22.26-18.06-21.12-32-.96-53.13,22.64-23.73,35.92-14.78,53.13,3.96,19.38,21.1,40.45,40.65,60.78,60.87,5.62-5.98,11.24-11.95,16.87-17.93-20.68-16.85-41.56-33.46-62-50.61-20.27-17.01-34.69-31.34-7.01-58.47,26.37-25.85,39-10.86,55.92,6.96,8.81,9.27,18.98,17.25,28.54,25.82,5.33-1.62,10.67-3.25,16-4.87-38.61-35.89-90.57-72.14-5.38-104.99,25.87,25.39,53.63,52.64,81.39,79.89,5.36-5.66,10.72-11.31,16.07-16.97-31.59-23.61-63.19-47.22-94.78-70.82,3.96-2.59,7.92-5.19,11.88-7.78,14.8-15.42,29.6-30.84,45.14-47.03,18.06,16.14,36.02,32.19,53.98,48.25,3.03-3.15,6.06-6.3,9.08-9.44-16.8-17.68-33.61-35.35-49.67-52.25,17.13-17.37,32.13-32.59,49.09-49.8,27.73,27.36,55.38,54.66,83.03,81.95,5.4-5.69,10.79-11.37,16.19-17.06-31.56-23.64-63.12-47.29-94.68-70.93l11.99-7.61c14.78-15.44,29.57-30.89,45.01-47.02,18.07,16.09,36.06,32.1,54.04,48.11,3-3.13,5.99-6.25,8.99-9.38-16.81-17.69-33.62-35.39-49.55-52.16,17.14-17.43,32.12-32.66,49.04-49.86,27.69,27.35,55.31,54.62,82.93,81.9,4.74-5.04,9.48-10.09,14.22-15.13-30.07-23.17-60.15-46.33-82.75-63.74,32.55-83.11,69.04-48.95,105.23-20.84-12.16-22.09-24.33-44.18-36.49-66.27Z"/>
</svg>