<?xml version="1.0" encoding="UTF-8"?>
<svg id="Layer_1" data-name="Layer 1" xmlns="http://www.w3.org/2000/svg" viewBox="0 0 1080 1080">
  <defs>
    <style>
      .cls-1 {
        stroke-width: 0px;        fill:white

      }
    </style>
  </defs>
  <path class="cls-1" d="m370.21,855.26h-55.87c0-28.35-4.92-56.42,1.59-81.52,5.03-19.39,20.76-42.06,38.08-51.07,51.35-26.71,105.85-47.39,156.34-69.22-10.56-23.92-26.45-47.24-30.57-72.49-4.9-29.99-14.9-46.77-47.87-43.31v-58.36c11.97-1.13,22.91-2.17,34.18-3.23,6.29-69.18,37.22-118.28,103.33-142.21,8.23-2.98,17.01-12.05,20.06-20.32,9.49-25.71,24.77-37.21,46.83-20.85,22.41,17.13,43.64,36.15,67.47,50.99,48.08,29.95,73.13,72.29,77.76,130.72,9.29,1.49,20.29,3.25,33.76,5.41v58.44c-30.21-4.14-41.06,9.92-45.91,39.5-4.33,26.36-20.57,50.77-31.72,76.43,33.76,21.15,103.22,14.67,74.75,95.51-22.8-8.85-47.42-16.53-70.28-27.76-29.15-14.32-56.36-25.02-89.12-7.99-12.44,6.47-32.66,8.05-45.17,2.5-44.52-19.78-82.67-8.28-120.88,15.35-11.63,7.19-25.21,11.87-38.48,15.63-53.1,15.03-96.75,36.91-78.28,107.87Zm344.4-313.44h-182.21c24.05,83.25,51.33,115.56,94.75,113.92,41.23-1.56,71-40.19,87.46-113.92Zm-201.29-66.78h223.27c-27.58-34.66-48.6-61.07-69.61-87.48-3.2,2.2-6.41,4.4-9.61,6.61-1.83,11.87-3.66,23.74-5.35,34.73h-55.91c-2.53-13.38-4.71-24.92-6.89-36.46-3.58-1.55-7.16-3.1-10.74-4.65-19.91,26.67-39.82,53.34-65.15,87.26Z"/>
  <path class="cls-1" d="m409.45,333.59c19.8,6.48,33.9,11.09,49.91,16.33v35.86c-16.86,6.3-31.02,11.59-45.18,16.87,5.8,13.74,11.61,27.47,19.14,45.29-6.73,6.1-18.04,16.33-27.58,24.96-13.78-6.85-27.11-13.47-40.44-20.09-6.2,13.55-12.4,27.09-20.64,45.11h-33.79c-5.04-14.71-10.14-29.59-16.73-48.81-18.18,9.48-32.35,16.87-47.48,24.77-17.27-14.53-34.09-24.05-11.68-56.59,21.25-30.86-20.18-20.32-35.25-28.5v-36.04c15.86-8.47,31.37-16.76,46.87-25.05-3.79-1.58-7.57-3.17-11.36-4.75-1.75-17.25-3.49-34.51-5.24-51.76h53.86c1.34,4.58,2.68,9.15,4.02,13.73,7.88-14.88,15.77-29.76,24.63-46.47h38.42c1.51,32.13,4.76,62.83,45.7,25.19,4.54-4.17,26.68,10.8,41.02,17.06-10.27,19.26-17.72,33.23-28.2,52.88Zm-33.99,35.99c-22.36-18.07-35.66-37.1-48.65-36.9-12.1.19-23.87,20.87-35.79,32.52,12.65,11.56,23.75,28.45,38.51,32.72,9.12,2.64,23.79-13.92,45.94-28.35Z"/>
</svg>