<?xml version="1.0" encoding="UTF-8"?>
<svg id="Layer_1" data-name="Layer 1" xmlns="http://www.w3.org/2000/svg" viewBox="0 0 309.45 297.19">
  <defs>
    <style>
      .cls-1 {
        fill: #c69c63;
        stroke-width: 0px;
      }
    </style>
  </defs>
  <path class="cls-1" d="M128.19,136.23c4.31,0,8.61.02,12.92,0,3.68-.02,6.53-2.81,6.57-6.37.05-3.59-2.85-6.47-6.6-6.48-8.57-.03-17.14-.03-25.7,0-3.77,0-6.66,2.85-6.64,6.44,0,3.6,2.9,6.39,6.68,6.41,4.26.03,8.51,0,12.77,0M128.24,149.28c-4.21,0-8.41,0-12.61,0-2.14,0-4.01.68-5.37,2.37-1.58,1.96-2.01,4.18-1.01,6.55.98,2.34,2.76,3.91,5.3,3.94,9.13.1,18.24.04,27.36.02.45,0,.9-.13,1.33-.27,2.91-.97,4.83-3.99,4.39-6.86-.52-3.36-3.05-5.68-6.46-5.72-4.31-.07-8.61-.02-12.93-.02M128.28,175.29v.02c-4.41,0-8.82-.1-13.23.03-3.66.11-6.36,2.99-6.33,6.45.04,3.54,2.86,6.41,6.56,6.44,8.61.05,17.23.04,25.85,0,2.02,0,3.77-.77,5.05-2.39,1.6-2.03,1.99-4.3.91-6.69-1.16-2.56-3.24-3.83-6.03-3.85-4.26-.04-8.51,0-12.77,0M167.2,147.49v53.61h25.78v-12.87c-2.26,0-4.43.03-6.6,0-3.09-.05-5.75-2.46-6.14-5.49-.53-4.06,2.3-7.42,6.42-7.53,2.11-.05,4.22,0,6.41,0v-6.44c-1.44,0-2.66.02-3.86,0-1.37-.03-2.77.1-4.09-.19-3.27-.71-5.26-3.68-4.91-7.03.32-3.24,2.98-5.69,6.36-5.8,2.12-.06,4.23,0,6.42,0v-16.8c-8.67,2.87-17.23,5.72-25.78,8.57M167.28,133.69c5.28-1.76,10.46-3.47,15.63-5.2,4.7-1.57,9.41-3.11,14.09-4.73,5.41-1.86,9.22,2.42,9.19,6.68-.15,22.93-.07,45.85-.07,68.77v1.89c.62.12,1.17.18,1.69.32,2.98.77,4.99,3.62,4.77,6.75-.22,3.16-2.54,5.63-5.67,5.97-.75.09-1.51.1-2.27.1-37.99,0-75.97,0-113.96,0-1.11,0-2.25-.02-3.32-.3-2.9-.77-4.77-3.53-4.61-6.54.16-3.11,2.33-5.55,5.41-6.06.3-.05.59-.12,1.08-.21v-1.93c0-35.8.06-71.6-.08-107.41-.02-4.54,3.58-8.73,9.34-6.98,20.95,6.36,41.93,12.6,62.89,18.89,4.24,1.27,5.75,3.32,5.75,7.75,0,7.25,0,14.5.02,21.76,0,.1.04.19.11.5"/>
</svg>