<?xml version="1.0" encoding="UTF-8"?>
<svg id="Layer_1" data-name="Layer 1" xmlns="http://www.w3.org/2000/svg" viewBox="0 0 1080 1080">
  <defs>
    <style>
      .cls-1 {
        stroke-width: 0px;
      }
    </style>
  </defs>
  <path class="cls-1" d="m751.11,154.85v600.9h-441.96c0-11.1,0-23.38,0-35.66,0-126.49-.96-252.99,1.03-379.44.3-19.13,10.06-41.8,22.84-56.33,34.02-38.69,71.69-74.23,108.81-110.09,8.64-8.35,20.74-18.37,31.4-18.54,91.33-1.46,182.7-.84,277.89-.84Zm-225.18,263.72c39.89,0,79.86,1.45,119.61-.93,11.17-.67,21.66-12.57,32.46-19.32-10.77-8.4-21.35-23.78-32.34-24.08-77.14-2.09-154.39-1.9-231.55-.02-10.04.25-19.74,14.34-29.6,22.03,9.83,7.43,19.26,20.55,29.56,21.27,37.13,2.6,74.56,1.02,111.87,1.05Zm2.94,121.9c37.32,0,74.81,2.06,111.85-1.11,12.97-1.11,24.83-15.08,37.2-23.18-11.73-7.08-23.31-20-35.21-20.3-74.59-1.88-149.27-1.86-223.85.01-11.63.29-22.94,13.25-34.4,20.35,12.11,8.07,23.7,21.96,36.42,23.1,35.75,3.18,71.96,1.11,107.99,1.13Zm.78,119.11c38.51,0,77.14,1.72,115.45-1.06,11.35-.82,21.79-14.33,32.64-22.02-10.64-6.77-21.17-19.18-31.95-19.41-76.98-1.68-154.03-1.68-231.01.08-10.28.24-20.27,13.39-30.4,20.55,9.91,7.27,19.46,20.14,29.81,20.81,38.34,2.51,76.95,1,115.46,1.04Zm-176.57-346.82h115.02v-115.43"/>
  <path class="cls-1" d="m791.75,245.68h90.36v600.3h-436.96v-65.83h346.6V245.68Z"/>
</svg>