<?xml version="1.0" encoding="UTF-8"?>
<svg id="Layer_1" data-name="Layer 1" xmlns="http://www.w3.org/2000/svg" viewBox="0 0 1080 1080">
  <defs>
    <style>
      .cls-1 {
        stroke-width: 0px;
      }
    </style>
  </defs>
  <path class="cls-1" d="m205.62,529.34h477.15c8.71,19.88,6.22,30.16-18.8,30.08-147-.43-294.01.11-441.01-1-8.93-.07-17.77-11.48-26.65-17.61,3.1-3.83,6.21-7.65,9.31-11.48Z"/>
  <path class="cls-1" d="m915.01,757.17c-8.61,6.34-17.18,18.14-25.85,18.22-131.5,1.18-263.02,1.18-394.52.05-9.12-.08-18.15-11.21-27.22-17.21,1.94-3.57,3.88-7.14,5.82-10.72h435.34c2.14,3.22,4.29,6.44,6.43,9.66Z"/>
  <path class="cls-1" d="m617.59,328.02c-.25,44.89-16.93,60.97-63,60.71-44.89-.25-60.97-16.93-60.71-63,.25-44.89,16.93-60.97,63-60.71,44.89.25,60.97,16.94,60.71,63Z"/>
  <path class="cls-1" d="m834.59,542.35c.34,46.21-15.68,63.04-60.33,63.37-46.21.34-63.04-15.68-63.37-60.33-.35-46.19,15.7-63.04,60.33-63.37,46.21-.34,63.04,15.68,63.37,60.33Z"/>
  <path class="cls-1" d="m384.1,822.72c-44.89-.25-60.97-16.93-60.71-63,.25-44.89,16.93-60.97,63-60.71,44.89.25,60.97,16.93,60.71,63-.25,44.89-16.94,60.97-63,60.71Z"/>
  <path class="cls-1" d="m464.07,341.44H203.89c-8.65-20.01-5.96-30.31,18.93-30.11,74.7.61,149.41-.41,224.09,1.04,9,.17,17.79,11.58,26.68,17.79-3.17,3.76-6.34,7.52-9.52,11.28Z"/>
  <path class="cls-1" d="m646.76,313.16h261.63c2.32,2.88,4.63,5.76,6.95,8.65-7.34,6.78-14.57,19.33-22.03,19.47-77.25,1.45-154.55,1.46-231.8.1-8.15-.14-16.1-11.62-24.15-17.84l9.4-10.37Z"/>
  <path class="cls-1" d="m302.3,775.28h-102.45c1.72-10.21,2.63-26.13,4.69-26.28,29.22-2.13,58.64-2.91,87.89-1.51,3.26.16,5.78,15.72,9.88,27.79Z"/>
  <path class="cls-1" d="m915.02,539.91c-8.44,6.43-16.19,16.82-25.47,18.45-17.22,3.02-38.8,4.75-28.53-27.7h44.41c3.2,3.09,6.4,6.17,9.6,9.26Z"/>
</svg>