<?xml version="1.0" encoding="UTF-8"?>
<svg id="Layer_1" data-name="Layer 1" xmlns="http://www.w3.org/2000/svg" viewBox="0 0 337.37 347.23">
  <defs>
    <style>
      .cls-1 {
        fill: #131331;
        stroke-width: 0px;
      }
    </style>
  </defs>
  <path class="cls-1" d="M121.11,204.91c-2.36-17.41-2.36-34.67,0-52.09h76.63c2.38,17.31,2.36,34.63.01,52.09h-76.64Z"/>
  <path class="cls-1" d="M123.45,139.44c3.18-13.74,7.47-26.91,15.71-38.48,2.18-3.05,4.8-5.85,7.57-8.38,3.57-3.27,7.78-5.49,12.89-5.42,4.94.07,9.07,2.18,12.47,5.4,3.02,2.87,5.92,6,8.27,9.41,7.84,11.32,11.95,24.12,15.04,37.48h-71.95Z"/>
  <path class="cls-1" d="M195.38,218.3c-2.48,10.98-5.85,21.51-11.21,31.37-2.76,5.06-5.93,9.87-10.2,13.86-1.7,1.59-3.55,3.08-5.52,4.31-6.22,3.88-12.59,3.82-18.51-.35-3.28-2.32-6.3-5.18-8.87-8.24-9.02-10.72-15.25-28.94-17.45-40.95h71.77Z"/>
  <path class="cls-1" d="M107.74,205.06h-2.13c-13.56,0-27.14-.03-40.7.05-1.67.01-2.25-.57-2.61-2.03-4.07-16.13-4.08-32.23-.02-48.36.4-1.61,1.06-2.11,2.78-2.1,13.43.09,26.85.06,40.28.06h2.37c-2.18,17.45-2.26,34.77.03,52.39"/>
  <path class="cls-1" d="M211.14,204.99c2.22-17.49,2.24-34.77,0-52.31h2.16c13.56,0,27.12.01,40.69-.03,1.47-.01,2.14.32,2.54,1.86,4.13,16.33,4.16,32.63-.1,48.94-.31,1.2-.72,1.65-2.04,1.65-13.98-.06-27.96-.03-41.94-.03-.34,0-.67-.05-1.3-.08"/>
  <path class="cls-1" d="M181.81,83.37c32.18,7.87,55.14,26.53,69.43,56.04-.94.07-1.52.14-2.09.14-12.72.01-25.44-.02-38.15.05-1.55,0-2.08-.42-2.41-1.95-3.06-14.18-7.43-27.95-15.43-40.25-3.03-4.68-6.99-8.77-10.54-13.13-.25-.31-.54-.59-.81-.89"/>
  <path class="cls-1" d="M181.53,274.68c16.28-15.75,22.84-35.63,27.58-56.42h42.01c-5.54,12.31-13.2,22.94-23.06,32.03-13.16,12.14-28.55,20.19-46.53,24.39"/>
  <path class="cls-1" d="M109.74,139.48h-42.02c5.59-12.42,13.32-23.11,23.28-32.25,13.12-12.01,28.42-20.01,46.32-24.17-16.29,15.75-22.85,35.63-27.58,56.42"/>
  <path class="cls-1" d="M68,218.26h41.75c4.72,20.75,11.27,40.63,27.27,56.11-23.93-1.63-63.57-33.84-69.02-56.11"/>
</svg>