<?xml version="1.0" encoding="UTF-8"?>
<svg id="Layer_1" data-name="Layer 1" xmlns="http://www.w3.org/2000/svg" viewBox="0 0 309.45 297.19">
  <defs>
    <style>
      .cls-1 {
        fill: #41ad49;
        stroke-width: 0px;
      }
    </style>
  </defs>
  <path class="cls-1" d="M104.04,191.86c.47-.11.76-.15,1.04-.24,4.92-1.56,9.87-3.06,14.75-4.74,1.76-.6,3.09-.4,4.64.59,6.75,4.26,14.15,6.69,22.07,7.52,8.63.9,16.98-.33,24.99-3.62,10.95-4.51,19.51-11.88,25.53-22.16,6.07-10.37,8.34-21.58,6.67-33.48-1.76-12.46-7.29-23.06-16.65-31.47-12.27-11.02-26.68-15.47-42.93-13.17-12.16,1.72-22.59,7.21-30.87,16.43-12.11,13.47-16.24,29.23-12.55,47.01,1.39,6.69,4.23,12.78,8.17,18.34.73,1.03.88,2.02.42,3.22-.67,1.76-1.23,3.58-1.83,5.38-1.14,3.41-2.27,6.82-3.47,10.39M85.85,212.48h-2.63v-2.65c.18-.37.41-.74.54-1.13,3.42-10.1,6.79-20.21,10.26-30.29.5-1.46.37-2.6-.35-3.94-8.11-15.15-10.23-31.14-6.03-47.8,8.28-32.83,40.15-54.2,73.43-49.38,12.76,1.85,24.22,6.83,33.9,15.43,17.77,15.8,25.34,35.7,22.43,59.4-1.46,11.86-6.16,22.51-13.65,31.79-12.39,15.34-28.48,23.74-48.05,25.04-11.87.79-23.19-1.62-33.83-7.07-.92-.47-1.72-.59-2.74-.26-8.57,2.79-17.17,5.51-25.76,8.28-2.52.81-5.01,1.72-7.52,2.58"/>
  <path class="cls-1" d="M118.34,127.04c.71-2.48,1.24-5.03,2.16-7.42,1.7-4.34,5-6.79,9.62-7.39.87-.11,1.73-.25,2.6-.37,2.3-.33,4.03.4,4.98,2.52,2.02,4.5,3.91,9.05,5.79,13.61.86,2.11-.2,3.9-1.34,5.54-.94,1.37-2.14,2.57-3.14,3.91-.23.31-.34,1.03-.14,1.31,4.94,7.13,10.95,13.09,18.78,16.98,2.65,1.31,2.67,1.28,4.56-1.01,1.06-1.29,2.09-2.61,3.12-3.93,1.88-2.4,3.39-2.81,6.18-1.56,2.48,1.11,4.94,2.28,7.39,3.45,1.78.86,3.53,1.78,5.3,2.65,1.52.74,2.22,1.97,2.17,3.62-.23,7.39-2.57,11.49-10.66,14.8-3.89,1.59-7.96,1.18-11.91.18-7.47-1.89-14.61-4.62-20.89-9.29-5.66-4.2-10.55-9.18-14.75-14.83-2.91-3.92-5.85-7.83-7.66-12.46-1.29-3.28-2.03-6.64-1.81-10.18-.11-.04-.23-.08-.34-.12"/>
</svg>