<?xml version="1.0" encoding="UTF-8"?>
<svg id="Layer_1" data-name="Layer 1" xmlns="http://www.w3.org/2000/svg" viewBox="0 0 1080 1080">
  <defs>
    <style>
      .cls-1 {
        stroke-width: 0px;
      }
    </style>
  </defs>
  <path class="cls-1" d="m526.21,422.78c-.71,115.6,11.99,103.5-103.47,103.34-122.64-.17-107.67,14.15-107.98-109.8-.28-112.97-11.53-101.07,101.42-101.64,18.59-.09,37.19-.13,55.78.01,50.62.39,53.93,3.83,54.23,56.03.1,17.35.02,34.71.02,52.06Z"/>
  <path class="cls-1" d="m661.87,314.66c115.47.72,103.34-12.01,103.2,103.61-.14,121.38,13.79,107.79-106.22,107.85-118.06.06-105.06,12.88-105.05-105.29,0-118.76-13.13-105.36,104.35-106.16,1.24,0,2.48,0,3.72,0Z"/>
  <path class="cls-1" d="m526.04,662.28c-.52,115.24,12.05,102.35-103.77,103.04-23.55.14-47.1-.28-70.65-.12-24.31.17-36.93-11.06-36.84-35.93.17-47.1.04-94.2.16-141.3.06-22.99,12.13-33.96,34.77-33.96,47.1,0,94.2.05,141.3-.02,25.31-.04,35.32,13.79,35.08,37.65-.24,23.55-.05,47.1-.05,70.65Z"/>
  <path class="cls-1" d="m655.92,765.18c-113.42-.46-101.78,11.64-102.28-100.81-.11-24.79.3-49.58.16-74.37-.14-24.74,12.17-36.24,36.62-36.15,45.86.18,91.73.26,137.59-.05,27.02-.19,37.51,13.77,37.23,39.5-.48,44.62-.43,89.25-.05,133.87.23,26.5-12.36,38.62-38.62,38.11-23.54-.45-47.1-.1-70.65-.1Z"/>
</svg>